<svg width="538" height="277" xmlns="http://www.w3.org/2000/svg" viewBox="0 0 462.73 238.67"><g opacity=".67"><path d="M119.57 14.35a2.53 2.53 0 01-2.95 2l-4.8-.93a2.53 2.53 0 00-3 2.48v4.87a2.53 2.53 0 01-2.48 2.52l-4.9.09a2.52 2.52 0 00-2.43 3l1 4.75a2.51 2.51 0 01-1.91 3l-4.79 1.1a2.52 2.52 0 00-1.75 3.47l2 4.42a2.51 2.51 0 01-1.26 3.3l-4.46 2.06a2.5 2.5 0 00-1 3.74l2.87 3.91a2.48 2.48 0 01-.54 3.47l-3.94 2.9a2.48 2.48 0 00-.2 3.85l3.64 3.22a2.47 2.47 0 01.19 3.5l-3.25 3.68a2.46 2.46 0 00.61 3.8l4.24 2.38a2.46 2.46 0 01.92 3.38L89 92.57a2.46 2.46 0 001.4 3.58L95 97.6a2.47 2.47 0 011.61 3.1l-1.49 4.66a2.45 2.45 0 002.12 3.2l4.87.45a2.47 2.47 0 012.23 2.7l-.49 4.85a2.45 2.45 0 002.75 2.68l4.87-.56a2.46 2.46 0 012.75 2.16l.54 4.84a2.47 2.47 0 003.26 2l4.65-1.56a2.48 2.48 0 013.15 1.54l1.54 4.61a2.47 2.47 0 003.62 1.32l4.25-2.48a2.49 2.49 0 013.41.85l2.47 4.18a2.5 2.5 0 003.83.54l3.64-3.3a2.5 2.5 0 013.52.13l3.3 3.56a2.52 2.52 0 003.87-.26l2.89-4a2.53 2.53 0 013.48-.6l4 2.79a2.53 2.53 0 003.74-1l2-4.48a2.53 2.53 0 013.29-1.3l4.49 1.89a2.52 2.52 0 003.45-1.8l1-4.78a2.54 2.54 0 012.95-2l4.8.92a2.53 2.53 0 003-2.47v-4.87a2.54 2.54 0 012.49-2.52l4.9-.09a2.53 2.53 0 002.43-3l-1-4.76a2.53 2.53 0 011.92-3l4.78-1.1a2.5 2.5 0 001.75-3.46l-2-4.43a2.51 2.51 0 011.26-3.29l4.46-2.06a2.5 2.5 0 001-3.74l-2.88-3.91a2.48 2.48 0 01.54-3.47l3.99-2.87a2.48 2.48 0 00.19-3.85l-3.64-3.22a2.48 2.48 0 01-.19-3.5l3.26-3.68a2.47 2.47 0 00-.62-3.8L216.73 53a2.47 2.47 0 01-.92-3.38l2.42-4.26a2.46 2.46 0 00-1.4-3.58l-4.65-1.45a2.45 2.45 0 01-1.61-3.1l1.48-4.66a2.44 2.44 0 00-2.12-3.2l-4.87-.45a2.46 2.46 0 01-2.22-2.7l.48-4.85a2.46 2.46 0 00-2.75-2.69l-4.87.57a2.45 2.45 0 01-2.7-2.18l-.54-4.84a2.47 2.47 0 00-3.26-2.05l-4.66 1.56a2.48 2.48 0 01-3.15-1.54l-1.54-4.61a2.48 2.48 0 00-3.62-1.33L172 6.75a2.48 2.48 0 01-3.41-.86l-2.48-4.17a2.5 2.5 0 00-3.83-.54l-3.64 3.3a2.5 2.5 0 01-3.52-.13L151.77.79a2.51 2.51 0 00-3.87.26L145 5a2.53 2.53 0 01-3.48.6l-4-2.79a2.53 2.53 0 00-3.75 1.05l-2 4.48a2.53 2.53 0 01-3.29 1.3L124 7.77a2.54 2.54 0 00-3.45 1.81zm82 22.62c17.42 26.14 10.06 61.65-16.45 79.32s-62.12 10.79-79.51-15.35-10.06-61.66 16.44-79.32S184.17 10.83 201.59 37z" fill="#279a90" opacity=".82"/><path d="M289.75 228.26a3.42 3.42 0 004.65-2.46l1.27-6.1a3.44 3.44 0 014-2.66l6.12 1.14a3.42 3.42 0 004.05-3.36v-6.21a3.41 3.41 0 013.34-3.42l6.24-.15a3.42 3.42 0 003.27-4.12l-1.33-6a3.42 3.42 0 012.57-4l6.07-1.52a3.39 3.39 0 002.34-4.69l-2.57-5.63a3.38 3.38 0 011.68-4.46l5.67-2.66a3.39 3.39 0 001.31-5.07l-3.69-5a3.37 3.37 0 01.71-4.7l5-3.76a3.37 3.37 0 00.23-5.22l-4.68-4.03a3.34 3.34 0 01-.29-4.73l4.12-4.71a3.34 3.34 0 00-.86-5.14l-5.42-3a3.34 3.34 0 01-1.27-4.56l3.06-5.45a3.33 3.33 0 00-1.92-4.83l-5.94-1.76a3.32 3.32 0 01-2.2-4.18l1.86-6a3.33 3.33 0 00-2.89-4.32L318 95a3.31 3.31 0 01-3-3.62l.58-6.19a3.33 3.33 0 00-3.74-3.61l-6.2.76a3.33 3.33 0 01-3.73-2.91l-.72-6.16a3.35 3.35 0 00-4.43-2.75l-5.92 2a3.35 3.35 0 01-4.27-2.07l-2-5.85a3.36 3.36 0 00-4.91-1.77L274.29 66a3.38 3.38 0 01-4.62-1.14l-3.18-5.3a3.38 3.38 0 00-5.19-.7l-4.61 4.23a3.41 3.41 0 01-4.77-.15l-4.22-4.51a3.4 3.4 0 00-5.24.38l-3.64 5.08a3.42 3.42 0 01-4.71.84l-5.11-3.5a3.41 3.41 0 00-5 1.45l-2.51 5.71a3.43 3.43 0 01-4.44 1.8l-5.73-2.39a3.42 3.42 0 00-4.65 2.46l-1.27 6.1a3.43 3.43 0 01-4 2.66l-6.12-1.14a3.41 3.41 0 00-4 3.36v6.21a3.43 3.43 0 01-3.35 3.42l-6.24.15a3.42 3.42 0 00-3.27 4.12l1.33 6a3.4 3.4 0 01-2.56 4l-6.09 1.44a3.4 3.4 0 00-2.35 4.7l2.55 5.72a3.39 3.39 0 01-1.67 4.46L164 124.1a3.38 3.38 0 00-1.32 5.07l3.69 5a3.36 3.36 0 01-.71 4.7l-5 3.76a3.36 3.36 0 00-.23 5.22l4.65 4.07a3.34 3.34 0 01.29 4.73l-4.12 4.71a3.34 3.34 0 00.86 5.14l5.42 3a3.33 3.33 0 011.27 4.55l-3.06 5.45a3.33 3.33 0 001.92 4.83l5.94 1.81a3.32 3.32 0 012.2 4.19l-1.86 5.94a3.33 3.33 0 002.9 4.32l6.2.54a3.31 3.31 0 013 3.62l-.58 6.19a3.33 3.33 0 003.74 3.61l6.2-.76a3.33 3.33 0 013.73 2.91l.73 6.16a3.34 3.34 0 004.42 2.75l5.92-2a3.35 3.35 0 014.27 2.07l2 5.86a3.36 3.36 0 004.92 1.76l5.38-3.19a3.37 3.37 0 014.62 1.13l3.18 5.3a3.39 3.39 0 005.19.71l4.62-4.24a3.39 3.39 0 014.76.15l4.23 4.51a3.39 3.39 0 005.23-.38l3.65-5.08a3.4 3.4 0 014.7-.84l5.09 3.52a3.41 3.41 0 005.05-1.45l2.51-5.71a3.43 3.43 0 014.44-1.8zM202.53 180c-17.42-26.14-10.06-61.65 16.45-79.31s62.11-10.79 79.53 15.35 10.06 61.65-16.44 79.31S220 206.16 202.53 180z" fill="#77bdb4" opacity=".82"/><path d="M283.11 55.8a3 3 0 00-3.77 2.5l-.57 5.41a3 3 0 01-3.18 2.62l-5.44-.47a2.94 2.94 0 00-3.15 3.22l.57 5.4a2.93 2.93 0 01-2.57 3.2l-5.43.67a2.93 2.93 0 00-2.45 3.8l1.69 5.15a2.93 2.93 0 01-1.88 3.7l-5.19 1.77a2.92 2.92 0 00-1.61 4.21l2.73 4.68a2.9 2.9 0 01-1.05 3.95l-4.71 2.8a2.9 2.9 0 00-.7 4.44l3.66 4a2.87 2.87 0 01-.21 4.07l-4 3.71a2.87 2.87 0 00.25 4.47l4.42 3.15a2.86 2.86 0 01.65 4l-3.17 4.43a2.86 2.86 0 001.17 4.31l5 2.15a2.86 2.86 0 011.47 3.78l-2.19 5a2.85 2.85 0 002.06 4l5.29 1.08a2.85 2.85 0 012.24 3.38l-1.1 5.34a2.85 2.85 0 002.84 3.44l5.47-.07a2.86 2.86 0 012.9 2.84v5.44a2.86 2.86 0 003.51 2.76l5.34-1.23a2.87 2.87 0 013.44 2.17l1.17 5.29a2.88 2.88 0 004 2l5-2.27a2.88 2.88 0 013.83 1.4l2.26 4.92a2.89 2.89 0 004.35 1.1l4.42-3.25a2.91 2.91 0 014.05.57l3.24 4.34a2.92 2.92 0 004.5.17l3.66-4.08a2.92 2.92 0 014.09-.28l4.09 3.56a2.93 2.93 0 004.45-.77l2.73-4.74a3 3 0 014-1.11l4.75 2.63a2.94 2.94 0 004.2-1.67l1.69-5.19a3 3 0 013.65-1.91l5.2 1.59a3 3 0 003.78-2.5l.57-5.42a3 3 0 013.18-2.61l5.44.47a2.94 2.94 0 003.18-3.22l-.57-5.4a2.94 2.94 0 012.57-3.21l5.43-.66a2.94 2.94 0 002.45-3.8l-1.69-5.15a2.92 2.92 0 011.85-3.66l5.19-1.78a2.9 2.9 0 001.6-4.2l-2.75-4.7a2.9 2.9 0 011.05-3.95l4.72-2.81a2.88 2.88 0 00.69-4.43l-3.65-4a2.88 2.88 0 01.2-4.07l4-3.72a2.88 2.88 0 00-.24-4.47l-4.42-3.14a2.87 2.87 0 01-.66-4l3.19-4.45a2.86 2.86 0 00-1.18-4.31l-5-2.15a2.86 2.86 0 01-1.48-3.79l2.2-5a2.86 2.86 0 00-2.06-4l-5.34-1.06a2.85 2.85 0 01-2.24-3.39l1.1-5.33a2.85 2.85 0 00-2.76-3.46l-5.47.06a2.85 2.85 0 01-2.9-2.84v-5.43a2.86 2.86 0 00-3.51-2.77l-5.34 1.2a2.86 2.86 0 01-3.44-2.17l-1.17-5.3a2.88 2.88 0 00-4-2l-5 2.27a2.89 2.89 0 01-3.83-1.4l-2.25-4.93a2.89 2.89 0 00-4.35-1.09l-4.43 3.25a2.91 2.91 0 01-4.05-.58L330.09 44a2.92 2.92 0 00-4.51-.16l-3.65 4.08a2.93 2.93 0 01-4.1.28l-4.08-3.57a2.94 2.94 0 00-4.45.77l-2.73 4.74a2.94 2.94 0 01-4 1.12l-4.75-2.63a2.93 2.93 0 00-4.2 1.67L292 55.48a3 3 0 01-3.65 1.91zm88.83 33.79c17.42 26.14 10.06 61.65-16.45 79.32S293.38 179.7 276 153.56s-10.1-61.66 16.4-79.32 62.12-10.79 79.54 15.35zM35.37 56.7a2.54 2.54 0 01-3 1.95l-4.79-.92a2.53 2.53 0 00-3 2.47v4.87a2.54 2.54 0 01-2.49 2.52l-4.9.09a2.52 2.52 0 00-2.43 3l1 4.75a2.53 2.53 0 01-1.91 3l-4.78 1.1A2.5 2.5 0 007.36 83l2 4.43a2.5 2.5 0 01-1.25 3.29l-4.48 2.06a2.5 2.5 0 00-1 3.74l2.88 3.91A2.48 2.48 0 015 103.9l-4 2.94a2.47 2.47 0 00-.19 3.85l3.63 3.22a2.47 2.47 0 01.2 3.5l-3.24 3.68a2.47 2.47 0 00.62 3.8l4.24 2.38a2.47 2.47 0 01.92 3.38l-2.43 4.26a2.47 2.47 0 001.4 3.58l4.66 1.45a2.45 2.45 0 011.61 3.1l-1.49 4.66a2.45 2.45 0 002.12 3.2l4.87.45a2.46 2.46 0 012.23 2.7l-.48 4.85a2.46 2.46 0 002.74 2.69l4.88-.57a2.46 2.46 0 012.71 2.16l.54 4.84a2.48 2.48 0 003.26 2l4.66-1.56A2.46 2.46 0 0141.6 170l1.54 4.61A2.49 2.49 0 0046.8 176l4.2-2.5a2.48 2.48 0 013.41.86l2.47 4.17a2.5 2.5 0 003.83.54l3.65-3.3a2.5 2.5 0 013.52.13l3.3 3.56a2.51 2.51 0 003.87-.26l2.88-4a2.53 2.53 0 013.48-.6l4 2.79a2.51 2.51 0 003.74-1l2-4.48a2.53 2.53 0 013.29-1.3l4.48 1.9a2.54 2.54 0 003.45-1.81l1-4.78a2.54 2.54 0 013-1.95l4.79.92a2.53 2.53 0 003-2.47v-4.87a2.55 2.55 0 012.49-2.52l4.9-.09a2.52 2.52 0 002.43-3l-1-4.75a2.51 2.51 0 011.91-3l4.78-1.11a2.52 2.52 0 001.76-3.46l-2-4.43a2.5 2.5 0 011.25-3.29l4.47-2.06a2.5 2.5 0 001-3.74l-2.88-3.91a2.49 2.49 0 01.55-3.47l3.94-2.94a2.47 2.47 0 00.19-3.85l-3.63-3.22a2.48 2.48 0 01-.2-3.5l3.26-3.68a2.47 2.47 0 00-.62-3.8l-4.24-2.38a2.47 2.47 0 01-.92-3.38l2.4-4.29a2.47 2.47 0 00-1.4-3.58l-4.6-1.45a2.45 2.45 0 01-1.61-3.1l1.49-4.66a2.45 2.45 0 00-2.12-3.2l-4.87-.45a2.47 2.47 0 01-2.23-2.7l.49-4.85a2.47 2.47 0 00-2.78-2.69l-4.87.57a2.46 2.46 0 01-2.75-2.16l-.54-4.84a2.47 2.47 0 00-3.26-2l-4.66 1.56a2.46 2.46 0 01-3.14-1.54l-1.54-4.61A2.48 2.48 0 0092 46.61l-4.24 2.48a2.49 2.49 0 01-3.41-.85l-2.47-4.18a2.5 2.5 0 00-3.88-.54l-3.65 3.3a2.5 2.5 0 01-3.52-.13l-3.3-3.56a2.52 2.52 0 00-3.87.26l-2.88 4a2.53 2.53 0 01-3.48.6l-4-2.79a2.53 2.53 0 00-3.74 1l-2 4.48A2.53 2.53 0 0144.32 52l-4.48-1.9a2.54 2.54 0 00-3.45 1.81zm82 22.61c17.42 26.14 10.06 61.66-16.44 79.32s-62.11 10.79-79.53-15.35S11.34 81.63 37.84 64 100 53.17 117.38 79.31z" fill="#b8dccf" opacity=".82"/><path d="M359.32 99.11a2.55 2.55 0 01-3 2l-4.79-.93a2.53 2.53 0 00-3 2.47v4.88a2.54 2.54 0 01-2.49 2.51l-4.9.09a2.53 2.53 0 00-2.43 3l1 4.75a2.52 2.52 0 01-1.91 3l-4.78 1.1a2.52 2.52 0 00-1.76 3.47l2 4.42a2.5 2.5 0 01-1.25 3.29l-4.47 2.07a2.5 2.5 0 00-1 3.74l2.88 3.91a2.5 2.5 0 01-.55 3.47l-3.87 2.9a2.49 2.49 0 00-.2 3.86l3.64 3.21a2.48 2.48 0 01.2 3.5l-3.26 3.68a2.47 2.47 0 00.62 3.8l4.24 2.39a2.46 2.46 0 01.92 3.37l-2.43 4.27a2.47 2.47 0 001.4 3.58l4.66 1.45a2.45 2.45 0 011.61 3.1l-1.49 4.66a2.46 2.46 0 002.12 3.2l4.87.45a2.46 2.46 0 012.23 2.69l-.49 4.86a2.46 2.46 0 002.75 2.68l4.87-.57a2.46 2.46 0 012.74 2.17l.54 4.83a2.48 2.48 0 003.26 2.06l4.66-1.57a2.48 2.48 0 013.14 1.55l1.54 4.6a2.48 2.48 0 003.63 1.33l4.24-2.49a2.5 2.5 0 013.41.86l2.47 4.17a2.5 2.5 0 003.83.55l3.65-3.3a2.5 2.5 0 013.52.13l3.29 3.56a2.53 2.53 0 003.88-.26l2.88-4a2.51 2.51 0 013.48-.6l4 2.79a2.52 2.52 0 003.74-1.06l2-4.47a2.54 2.54 0 013.29-1.31l4.48 1.9a2.53 2.53 0 003.45-1.8l1-4.78a2.54 2.54 0 013-1.95l4.79.92a2.54 2.54 0 003-2.47v-4.87a2.54 2.54 0 012.49-2.52l4.9-.09a2.53 2.53 0 002.43-3l-1-4.75a2.51 2.51 0 011.91-3l4.78-1.1a2.52 2.52 0 001.76-3.46l-2-4.43a2.5 2.5 0 011.25-3.29l4.46-2.07a2.49 2.49 0 001-3.74l-2.88-3.9a2.5 2.5 0 01.54-3.48l3.95-2.93a2.48 2.48 0 00.19-3.86l-3.63-3.21a2.47 2.47 0 01-.2-3.5l3.26-3.68a2.47 2.47 0 00-.62-3.8l-4.24-2.39a2.46 2.46 0 01-.92-3.37l2.4-4.25a2.46 2.46 0 00-1.4-3.58l-4.66-1.45a2.46 2.46 0 01-1.61-3.1l1.49-4.66a2.47 2.47 0 00-2.12-3.21l-4.87-.45a2.45 2.45 0 01-2.23-2.69l.48-4.85a2.46 2.46 0 00-2.74-2.69l-4.88.57a2.46 2.46 0 01-2.74-2.17l-.56-4.82a2.47 2.47 0 00-3.26-2l-4.66 1.56A2.46 2.46 0 01421.1 95l-1.54-4.6a2.49 2.49 0 00-3.63-1.4l-4.24 2.49a2.49 2.49 0 01-3.41-.86l-2.47-4.17a2.5 2.5 0 00-3.83-.55l-3.65 3.31a2.51 2.51 0 01-3.52-.13l-3.3-3.56a2.5 2.5 0 00-3.87.26l-2.88 4a2.51 2.51 0 01-3.48.6l-4-2.79a2.52 2.52 0 00-3.74 1.06l-2 4.47a2.54 2.54 0 01-3.29 1.31l-4.48-1.9a2.54 2.54 0 00-3.45 1.8zm82 22.62c17.42 26.14 10.06 61.65-16.45 79.32s-62.11 10.79-79.53-15.36-10.05-61.69 16.45-79.31 62.12-10.79 79.54 15.35z" fill="#b8dccf" opacity=".82"/></g></svg>