<svg width="398" height="404" xmlns="http://www.w3.org/2000/svg" viewBox="0 0 359.15 364.13"><ellipse cx="179.57" cy="182.06" rx="179.57" ry="182.06" fill="none"/><path d="M346.93 189.7a10.17 10.17 0 01.05-14.19l3.18-3.23a10.15 10.15 0 00-1.56-15.52l-3.76-2.51a10.15 10.15 0 01-2.84-13.89l2.45-3.82a10.12 10.12 0 00-4.71-14.86l-4.22-1.68a10.11 10.11 0 01-5.65-13l1.61-4.26a10.06 10.06 0 00-7.65-13.53l-4.44-.75A10.05 10.05 0 01311.2 77l.71-4.51a10 10 0 00-10.26-11.62l-4.5.21a10 10 0 01-10.37-9.53l-.23-4.55a10 10 0 00-12.43-9.21l-4.35 1.15a9.91 9.91 0 01-12.1-7.13l-1.16-4.4a9.89 9.89 0 00-14-6.39l-4 2a9.87 9.87 0 01-13.3-4.43l-2-4.06a9.85 9.85 0 00-15-3.29l-3.52 2.84a9.83 9.83 0 01-13.91-1.52L187.81 9a9.84 9.84 0 00-15.39 0l-2.85 3.53A9.84 9.84 0 01155.64 14l-3.49-2.87a9.86 9.86 0 00-15.07 3.19l-2.06 4a9.87 9.87 0 01-13.33 4.35l-4-2.08a9.89 9.89 0 00-14.08 6.31l-1.2 4.39a9.91 9.91 0 01-12.14 7.06l-4.34-1.18a10 10 0 00-12.48 9.13l-.27 4.55a10 10 0 01-10.43 9.46l-4.49-.23a10 10 0 00-10.33 11.57l.67 4.51a10 10 0 01-8.26 11.45l-4.44.71a10.08 10.08 0 00-7.74 13.49l1.59 4.27A10.11 10.11 0 0124 119l-4.2 1.64a10.12 10.12 0 00-4.8 14.84l2.43 3.84a10.16 10.16 0 01-3 13.87l-3.78 2.49A10.15 10.15 0 009 171.19l3.16 3.24a10.17 10.17 0 01-.05 14.19L9 191.85a10.15 10.15 0 001.56 15.52l3.76 2.51a10.15 10.15 0 012.87 13.89l-2.45 3.82a10.12 10.12 0 004.71 14.86l4.19 1.66a10.11 10.11 0 015.65 13l-1.62 4.25a10.07 10.07 0 007.66 13.54l4.44.74A10.06 10.06 0 0148 287.13l-.71 4.5a10 10 0 0010.21 11.63l4.5-.21a10 10 0 0110.37 9.53l.23 4.55a10 10 0 0012.4 9.22l4.35-1.16a9.91 9.91 0 0112.09 7.14l1.17 4.4a9.89 9.89 0 0014 6.39l4-2a9.87 9.87 0 0113.3 4.43l2 4.06a9.85 9.85 0 0015 3.29l3.69-2.9a9.84 9.84 0 0113.91 1.53l2.83 3.55a9.85 9.85 0 0015.39.05l2.85-3.53a9.83 9.83 0 0113.92-1.44L207 353a9.85 9.85 0 0015.06-3.19l2.07-4.05a9.86 9.86 0 0113.32-4.35l4 2.07a9.88 9.88 0 0014.08-6.3l1.19-4.39a9.92 9.92 0 0112.15-7.06l4.34 1.18a10 10 0 0012.48-9.13l.26-4.55a10 10 0 0110.43-9.47l4.5.24a10 10 0 0010.33-11.56l-.68-4.51a10.05 10.05 0 018.27-11.45l4.44-.71a10.08 10.08 0 007.76-13.45l-1.59-4.27a10.11 10.11 0 015.73-12.94l4.2-1.64a10.11 10.11 0 004.8-14.82l-2.42-3.84a10.15 10.15 0 013-13.87l3.77-2.49a10.14 10.14 0 001.66-15.51zm-167.36 58.87c-36.22 0-65.59-29.77-65.59-66.51s29.37-66.5 65.59-66.5 65.6 29.77 65.6 66.5-29.37 66.51-65.6 66.51z" fill="#059290"/><path d="M339.05 188.57a7.84 7.84 0 000-12l-5.83-4.86a7.83 7.83 0 01-1.1-10.9l4.75-5.95a7.84 7.84 0 00-2.44-11.8l-6.71-3.51a7.84 7.84 0 01-3.31-10.44l3.43-6.81a7.81 7.81 0 00-4.81-11l-7.27-2a7.79 7.79 0 01-5.38-9.51l1.95-7.39a7.76 7.76 0 00-7-9.77l-7.53-.45a7.74 7.74 0 01-7.21-8.17l.39-7.64a7.71 7.71 0 00-8.81-8.09l-7.46 1.15a7.69 7.69 0 01-8.73-6.47l-1.18-7.55a7.66 7.66 0 00-10.28-6.06l-7.06 2.7a7.65 7.65 0 01-9.87-4.49L235 30.31a7.63 7.63 0 00-11.3-3.76l-6.35 4.12a7.6 7.6 0 01-10.57-2.31L202.62 22a7.61 7.61 0 00-11.82-1.3l-5.36 5.3a7.61 7.61 0 01-10.82 0l-5.33-5.41a7.61 7.61 0 00-11.83 1.22l-4.15 6.39a7.6 7.6 0 01-10.58 2.25l-6.33-4.17A7.63 7.63 0 00125.08 30l-2.75 7.12a7.64 7.64 0 01-9.89 4.43l-7-2.74a7.67 7.67 0 00-10.32 6l-1.23 7.55a7.68 7.68 0 01-8.76 6.41l-7.45-1.19a7.71 7.71 0 00-8.86 8l.34 7.64a7.72 7.72 0 01-7.25 8.12l-7.54.41a7.76 7.76 0 00-7 9.73l1.91 7.4a7.79 7.79 0 01-5.43 9.48l-7.29 2a7.81 7.81 0 00-4.87 11L35 128.2a7.83 7.83 0 01-3.37 10.41l-6.73 3.48a7.82 7.82 0 00-2.5 11.78l4.71 6A7.86 7.86 0 0126 170.74l-5.87 4.82a7.84 7.84 0 000 12.05l5.83 4.86a7.85 7.85 0 011.1 10.9l-4.75 5.95a7.84 7.84 0 002.44 11.8l6.7 3.51a7.82 7.82 0 013.31 10.44l-3.42 6.81a7.81 7.81 0 004.8 11l7.28 2a7.79 7.79 0 015.38 9.51l-2 7.39a7.76 7.76 0 007 9.77l7.53.45a7.74 7.74 0 017.21 8.16l-.39 7.65a7.71 7.71 0 008.76 8.19l7.46-1.15a7.67 7.67 0 018.73 6.47l1.18 7.55a7.66 7.66 0 0010.28 6.06l7.06-2.7a7.65 7.65 0 019.87 4.49l2.7 7.14a7.63 7.63 0 0011.3 3.76l6.35-4.13a7.61 7.61 0 0110.57 2.32l4.11 6.41a7.61 7.61 0 0011.82 1.3l5.37-5.38a7.61 7.61 0 0110.82 0l5.33 5.41a7.61 7.61 0 0011.83-1.22l4.15-6.39a7.6 7.6 0 0110.58-2.25l6.33 4.16a7.62 7.62 0 0011.32-3.69l2.75-7.12a7.64 7.64 0 019.89-4.43l7 2.74a7.67 7.67 0 0010.32-6l1.22-7.55a7.68 7.68 0 018.77-6.41l7.45 1.19a7.71 7.71 0 008.86-8l-.35-7.64a7.75 7.75 0 017.26-8.13l7.54-.4a7.75 7.75 0 007-9.73l-1.9-7.4a7.79 7.79 0 015.43-9.48l7.29-2a7.81 7.81 0 004.87-11l-3.39-6.84a7.83 7.83 0 013.37-10.41l6.73-3.48a7.83 7.83 0 002.5-11.78l-4.71-6a7.85 7.85 0 011.16-10.89zm-159.48 60c-36.22 0-65.59-29.77-65.59-66.51s29.37-66.5 65.59-66.5 65.6 29.77 65.6 66.5-29.37 66.51-65.6 66.51z" fill="#8ac6bf"/><path d="M318.2 207.64l8-5.31a6 6 0 001-9.19l-6.74-6.88a6 6 0 010-8.4l6.74-6.88a6 6 0 00-1-9.19l-8-5.31a6 6 0 01-1.73-8.22l5.19-8.15a6 6 0 00-2.82-8.79l-8.92-3.5a6 6 0 01-3.37-7.68l3.4-9.06a6 6 0 00-4.56-8l-9.39-1.55a6 6 0 01-4.87-6.8l1.47-9.58a5.94 5.94 0 00-6.1-6.87l-9.56.48a5.91 5.91 0 01-6.16-5.63l-.53-9.68a5.89 5.89 0 00-7.42-5.45l-9.25 2.48a5.88 5.88 0 01-7.18-4.2l-2.5-9.36a5.87 5.87 0 00-8.33-3.76l-8.57 4.4a5.85 5.85 0 01-7.89-2.6l-4.37-8.62a5.84 5.84 0 00-8.91-1.93l-7.46 6.08a5.82 5.82 0 01-8.24-.88l-6-7.51a5.83 5.83 0 00-9.12 0l-6 7.51a5.82 5.82 0 01-8.24.88l-7.45-6.08a5.84 5.84 0 00-8.92 1.93L140 45a5.84 5.84 0 01-7.88 2.6l-8.54-4.38a5.86 5.86 0 00-8.32 3.76l-2.51 9.36a5.87 5.87 0 01-7.18 4.2L96.32 58a5.91 5.91 0 00-7.38 5.44l-.53 9.68a5.91 5.91 0 01-6.16 5.62l-9.55-.47a5.92 5.92 0 00-6.1 6.86l1.47 9.59a6 6 0 01-4.88 6.79l-9.44 1.55a6 6 0 00-4.55 8l3.39 9.06a6 6 0 01-3.37 7.68l-8.91 3.5a6 6 0 00-2.82 8.79l5.18 8.15a6 6 0 01-1.67 8.25l-8 5.31a6 6 0 00-1 9.2l6.74 6.87a6 6 0 010 8.41L32 193.15a6 6 0 001 9.19l8 5.31a6 6 0 011.72 8.22L37.49 224a6 6 0 002.82 8.79l8.92 3.51a6 6 0 013.37 7.7l-3.4 9.06a6 6 0 004.56 8l9.44 1.55a6 6 0 014.87 6.8L66.6 279a5.94 5.94 0 006.1 6.87l9.56-.48a5.92 5.92 0 016.16 5.61l.53 9.69a5.89 5.89 0 007.37 5.43l9.25-2.48a5.88 5.88 0 017.18 4.2l2.5 9.36a5.87 5.87 0 008.33 3.76l8.53-4.38a5.85 5.85 0 017.89 2.6l4.37 8.62a5.84 5.84 0 008.91 1.93l7.45-6.08a5.83 5.83 0 018.25.88l6 7.51a5.82 5.82 0 009.11 0l6.05-7.52a5.82 5.82 0 018.24-.87l7.45 6.07a5.84 5.84 0 008.92-1.92l4.37-8.62a5.83 5.83 0 017.88-2.6l8.54 4.37a5.85 5.85 0 008.32-3.76l2.51-9.35a5.86 5.86 0 017.18-4.2l9.24 2.47a5.89 5.89 0 007.38-5.43l.53-9.68a5.91 5.91 0 016.16-5.62l9.55.47a5.92 5.92 0 006.1-6.86l-1.47-9.59a5.94 5.94 0 014.96-6.8l9.45-1.55a6 6 0 004.55-8l-3.4-9.06a6 6 0 013.38-7.68l8.91-3.5a6 6 0 002.82-8.79l-5.18-8.15a6 6 0 011.67-8.23zm-138.63 40.93c-36.22 0-65.59-29.77-65.59-66.51s29.37-66.5 65.59-66.5 65.6 29.77 65.6 66.5-29.37 66.51-65.6 66.51z" fill="#cbe4d9"/><path d="M312.35 187.72a6.59 6.59 0 000-10.12l-4.76-4a6.59 6.59 0 01-.91-9.16l3.89-4.86a6.58 6.58 0 00-2-9.91l-5.47-2.88a6.58 6.58 0 01-2.77-8.77l2.81-5.57a6.57 6.57 0 00-4-9.27l-5.95-1.66a6.54 6.54 0 01-4.5-8l1.6-6a6.52 6.52 0 00-5.83-8.22l-6.16-.37a6.51 6.51 0 01-6-6.87l.33-6.25a6.47 6.47 0 00-7.39-6.8l-6.1.93a6.46 6.46 0 01-7.32-5.45l-1-6.18a6.43 6.43 0 00-8.62-5.1l-5.78 2.2a6.42 6.42 0 01-8.28-3.78l-2.2-5.84a6.4 6.4 0 00-9.48-3.17L211.23 56a6.38 6.38 0 01-8.87-2L199 48.78a6.38 6.38 0 00-9.92-1.1l-4.4 4.39a6.39 6.39 0 01-9.08 0l-4.36-4.43a6.38 6.38 0 00-9.93 1l-3.4 5.22A6.38 6.38 0 01149 55.7l-5.17-3.41a6.4 6.4 0 00-9.51 3.09l-2.25 5.82a6.42 6.42 0 01-8.31 3.71L118 62.66a6.43 6.43 0 00-8.67 5l-1 6.17a6.46 6.46 0 01-7.33 5.4l-6.09-1A6.48 6.48 0 0087.43 85l.27 6.25A6.48 6.48 0 0181.6 98l-6.16.32a6.52 6.52 0 00-5.91 8.17l1.56 6a6.54 6.54 0 01-4.58 8l-6 1.61a6.55 6.55 0 00-4.1 9.23l2.76 5.6a6.57 6.57 0 01-2.85 8.74l-5.5 2.83a6.58 6.58 0 00-2.12 9.89l3.85 4.9a6.59 6.59 0 01-1 9.15l-4.8 3.93a6.59 6.59 0 000 10.12l4.76 4a6.59 6.59 0 01.91 9.16l-3.89 4.86a6.58 6.58 0 002 9.91l5.48 2.88a6.58 6.58 0 012.77 8.77L56 231.65a6.55 6.55 0 004 9.26l6 1.67a6.54 6.54 0 014.5 8l-1.6 6a6.52 6.52 0 005.83 8.22l6.16.37a6.51 6.51 0 016 6.87l-.33 6.25a6.46 6.46 0 007.38 6.8l6.11-.93a6.46 6.46 0 017.32 5.45l1 6.18a6.43 6.43 0 008.62 5.1l5.78-2.2a6.41 6.41 0 018.23 3.81l2.21 5.84a6.4 6.4 0 009.48 3.17l5.2-3.36a6.38 6.38 0 018.87 2l3.36 5.25a6.38 6.38 0 009.92 1.1l4.4-4.39a6.38 6.38 0 019.08 0l4.35 4.43a6.39 6.39 0 009.94-1l3.4-5.22a6.39 6.39 0 018.89-1.88l5.17 3.42a6.4 6.4 0 009.51-3.09l2.25-5.82a6.42 6.42 0 018.31-3.71l5.76 2.25a6.43 6.43 0 008.67-5l1-6.17a6.46 6.46 0 017.37-5.38l6.09 1a6.48 6.48 0 007.45-6.74l-.28-6.25a6.5 6.5 0 016.11-6.81l6.16-.32a6.52 6.52 0 005.9-8.17l-1.55-6.05a6.54 6.54 0 014.58-8l6-1.62a6.55 6.55 0 004.1-9.22l-2.76-5.6a6.57 6.57 0 012.85-8.74l5.5-2.83a6.58 6.58 0 002.11-9.9l-3.84-4.89a6.59 6.59 0 011-9.15zm-132.78 60.85c-36.22 0-65.59-29.77-65.59-66.51s29.37-66.5 65.59-66.5 65.6 29.77 65.6 66.5-29.37 66.51-65.6 66.51z" fill="#fff"/><path d="M281.66 195.73a4 4 0 00.61-6l-5-5.11a4 4 0 010-5.53l5-5.14a4 4 0 00-.64-6l-6-3.94a4 4 0 01-1.15-5.39l3.85-6.09a3.94 3.94 0 00-1.86-5.77l-6.66-2.59a3.94 3.94 0 01-2.22-5l2.51-6.76a3.92 3.92 0 00-3-5.26l-7-1.13a3.92 3.92 0 01-3.22-4.46l1.08-7.14a3.9 3.9 0 00-4-4.51l-7.12.38a3.89 3.89 0 01-4.06-3.69l-.41-7.21a3.87 3.87 0 00-4.86-3.56l-6.88 1.86a3.86 3.86 0 01-4.73-2.74l-1.88-7a3.85 3.85 0 00-5.48-2.46l-6.35 3.28a3.85 3.85 0 01-5.19-1.7l-3.27-6.42a3.83 3.83 0 00-5.86-1.24l-5.54 4.54a3.84 3.84 0 01-5.42-.56l-4.52-5.59a3.83 3.83 0 00-6 0l-4.49 5.61a3.83 3.83 0 01-5.42.6l-5.56-4.52a3.84 3.84 0 00-5.92 1.2l-3.24 6.43a3.83 3.83 0 01-5.17 1.72l-6.37-3.24a3.86 3.86 0 00-5.47 2.48l-1.85 7a3.86 3.86 0 01-4.71 2.78l-6.9-1.86a3.87 3.87 0 00-4.84 3.58l-.38 7.22a3.88 3.88 0 01-4 3.7l-7.12-.34a3.91 3.91 0 00-4 4.53l1.11 7.14a3.9 3.9 0 01-3.19 4.47l-7 1.17a3.93 3.93 0 00-3 5.27l2.55 6.75a3.94 3.94 0 01-2.2 5.05l-6.64 2.63a3.94 3.94 0 00-1.89 5.83l3.88 6a4 4 0 01-1.12 5.41l-6 4a4 4 0 00-.61 6l5 5.11a4 4 0 010 5.53l-5 5.14a3.94 3.94 0 00.64 6l6 3.94a4 4 0 011.14 5.4l-3.84 6.09a3.94 3.94 0 001.86 5.77l6.71 2.61a3.93 3.93 0 012.23 5l-2.51 6.76a3.91 3.91 0 003 5.25l7 1.14a3.92 3.92 0 013.22 4.46l-1.08 7.14a3.9 3.9 0 004 4.51l7.12-.38a3.9 3.9 0 014.06 3.69l.41 7.21a3.87 3.87 0 004.86 3.56l6.88-1.87a3.88 3.88 0 014.73 2.75l1.88 7a3.85 3.85 0 005.48 2.46l6.35-3.28a3.85 3.85 0 015.19 1.7l3.27 6.42a3.83 3.83 0 005.86 1.24l5.54-4.54a3.84 3.84 0 015.42.56l4.52 5.59a3.83 3.83 0 006 0l4.49-5.62a3.84 3.84 0 015.42-.59l5.56 4.52a3.84 3.84 0 005.86-1.28l3.29-6.4a3.84 3.84 0 015.17-1.72l6.37 3.25a3.86 3.86 0 005.47-2.49l1.85-7a3.86 3.86 0 014.71-2.77l6.89 1.83a3.87 3.87 0 004.84-3.58l.38-7.22a3.88 3.88 0 014-3.7l7.12.33a3.89 3.89 0 004-4.52l-1.11-7.14a3.9 3.9 0 013.19-4.47l7-1.18a3.92 3.92 0 003-5.26l-2.55-6.75a3.93 3.93 0 012.2-5l6.64-2.63a3.94 3.94 0 001.84-5.78l-3.88-6.06a4 4 0 011.12-5.41zm-102.09 52.84c-36.22 0-65.59-29.77-65.59-66.51s29.37-66.5 65.59-66.5 65.6 29.77 65.6 66.5-29.37 66.51-65.6 66.51z" fill="#cbe4d9"/><path d="M268.81 184.94a3.4 3.4 0 000-5.22l-4.82-4a3.39 3.39 0 01-.48-4.72l3.93-4.92a3.39 3.39 0 00-1.06-5.11l-5.54-2.91a3.39 3.39 0 01-1.44-4.51l2.84-5.65a3.38 3.38 0 00-2.08-4.77l-6-1.67a3.38 3.38 0 01-2.33-4.12l1.61-6.11a3.36 3.36 0 00-3-4.24l-6.23-.37a3.34 3.34 0 01-3.12-3.53l.32-6.32a3.34 3.34 0 00-3.81-3.51l-6.18 1a3.31 3.31 0 01-3.77-2.8l-1-6.25a3.32 3.32 0 00-4.45-2.62l-5.84 2.23a3.29 3.29 0 01-4.27-1.94l-2.24-5.91a3.3 3.3 0 00-4.85-1.69l-5.3 3.42a3.3 3.3 0 01-4.58-1l-3.4-5.31a3.28 3.28 0 00-5.11-.56l-4.45 4.45a3.29 3.29 0 01-4.68 0l-4.41-4.47a3.29 3.29 0 00-5.12.53l-3.43 5.29a3.31 3.31 0 01-4.59 1l-5.23-3.45a3.31 3.31 0 00-4.9 1.6l-2.27 5.9a3.31 3.31 0 01-4.29 1.91l-5.82-2.26a3.31 3.31 0 00-4.47 2.59l-1 6.25a3.35 3.35 0 01-3.8 2.78l-6.16-1a3.34 3.34 0 00-3.84 3.48l.29 6.32a3.36 3.36 0 01-3.14 3.52l-6.24.33a3.36 3.36 0 00-3 4.21l1.58 6.13a3.37 3.37 0 01-2.35 4.1l-6 1.64a3.38 3.38 0 00-2.11 4.76l2.8 5.66a3.39 3.39 0 01-1.46 4.51l-5.56 2.87a3.39 3.39 0 00-1.08 5.1l3.9 5a3.39 3.39 0 01-.51 4.71l-4.85 4a3.4 3.4 0 000 5.22l4.82 4a3.39 3.39 0 01.48 4.72l-3.93 4.92a3.39 3.39 0 001.06 5.11l5.54 2.91a3.38 3.38 0 011.43 4.51l-2.83 5.64A3.39 3.39 0 0099 221l6 1.67a3.38 3.38 0 012.33 4.12l-1.61 6.11a3.35 3.35 0 003 4.23l6.23.38a3.34 3.34 0 013.12 3.53l-.32 6.32a3.33 3.33 0 003.81 3.5l6.17-1a3.33 3.33 0 013.78 2.8l1 6.26a3.32 3.32 0 004.49 2.68l5.84-2.23a3.29 3.29 0 014.27 1.94l2.24 5.91a3.3 3.3 0 004.89 1.62l5.26-3.41a3.29 3.29 0 014.57 1l3.41 5.31a3.28 3.28 0 005.11.56l4.44-4.45a3.29 3.29 0 014.68 0l4.42 4.47a3.29 3.29 0 005.12-.53l3.43-5.29a3.3 3.3 0 014.58-1l5.24 3.45a3.31 3.31 0 004.9-1.6l2.27-5.9a3.3 3.3 0 014.28-1.91l5.83 2.26a3.31 3.31 0 004.47-2.59l1-6.25a3.33 3.33 0 013.8-2.78l6.16 1a3.34 3.34 0 003.84-3.48l-.29-6.32a3.36 3.36 0 013.14-3.52l6.24-.33a3.36 3.36 0 003-4.21l-1.58-6.13a3.36 3.36 0 012.35-4.1l6-1.64a3.38 3.38 0 002.11-4.76l-2.8-5.66a3.39 3.39 0 011.46-4.51l5.56-2.87a3.39 3.39 0 001.08-5.1l-3.9-5a3.39 3.39 0 01.51-4.71zm-89.24 63.63c-36.22 0-65.59-29.77-65.59-66.51s29.37-66.5 65.59-66.5 65.6 29.77 65.6 66.5-29.37 66.51-65.6 66.51z" fill="#8ec8be"/><path d="M253.73 184.33a2.93 2.93 0 010-4.08l4-4a2.92 2.92 0 00-.45-4.47l-4.68-3.12a2.92 2.92 0 01-.82-4l3-4.75a2.92 2.92 0 00-1.35-4.28l-5.21-2.06a2.92 2.92 0 01-1.63-3.74l2-5.29a2.91 2.91 0 00-2.21-3.9l-5.52-.92a2.9 2.9 0 01-2.36-3.31l.88-5.61a2.88 2.88 0 00-3-3.34l-5.58.26a2.88 2.88 0 01-3-2.74l-.29-5.67a2.87 2.87 0 00-3.58-2.65l-5.41 1.44a2.85 2.85 0 01-3.48-2.06l-1.45-5.47a2.85 2.85 0 00-4-1.84l-5 2.54a2.83 2.83 0 01-3.83-1.27l-2.54-5.06a2.84 2.84 0 00-4.33-.94l-4.37 3.54a2.83 2.83 0 01-4-.44l-3.52-4.42a2.83 2.83 0 00-4.42 0l-3.55 4.39a2.84 2.84 0 01-4 .41l-4.35-3.57a2.83 2.83 0 00-4.33.92l-2.57 5a2.85 2.85 0 01-3.84 1.25l-5-2.57a2.83 2.83 0 00-4.05 1.81l-1.49 5.47a2.84 2.84 0 01-3.49 2l-5.4-1.47a2.88 2.88 0 00-3.6 2.63l-.32 5.66a2.88 2.88 0 01-3 2.73l-5.59-.3a2.88 2.88 0 00-3 3.33l.84 5.61a2.9 2.9 0 01-2.38 3.29l-5.53.89a2.9 2.9 0 00-2.22 3.88l2 5.31a2.91 2.91 0 01-1.65 3.73l-5.22 2a2.91 2.91 0 00-1.38 4.27l3 4.77a2.93 2.93 0 01-.84 4L102 171.3a2.92 2.92 0 00-.47 4.46l3.93 4a2.93 2.93 0 010 4.08l-4 4a2.92 2.92 0 00.45 4.47l4.67 3.12a2.91 2.91 0 01.83 4l-3.05 4.76a2.92 2.92 0 001.36 4.28l5.21 2.06a2.92 2.92 0 011.63 3.74l-2 5.29a2.91 2.91 0 002.21 3.9l5.52.92a2.88 2.88 0 012.35 3.31l-.87 5.6a2.88 2.88 0 003 3.35l5.59-.26a2.88 2.88 0 013 2.74l.29 5.66a2.87 2.87 0 003.58 2.66l5.41-1.44a2.86 2.86 0 013.48 2.05l1.45 5.48a2.85 2.85 0 004 1.84l5-2.54a2.84 2.84 0 013.83 1.27l2.54 5.05a2.83 2.83 0 004.33.95l4.37-3.54a2.82 2.82 0 014 .44l3.52 4.41a2.84 2.84 0 004.43 0l3.55-4.39a2.84 2.84 0 014-.41l4.35 3.57a2.83 2.83 0 004.33-.92l2.57-5a2.84 2.84 0 013.81-1.26l5 2.57a2.84 2.84 0 004-1.81l1.48-5.47a2.86 2.86 0 013.5-2l5.4 1.46a2.85 2.85 0 003.59-2.62l.33-5.67a2.87 2.87 0 013-2.72l5.59.3a2.88 2.88 0 003-3.33l-.84-5.61a2.89 2.89 0 012.38-3.29l5.52-.89a2.91 2.91 0 002.23-3.89l-2-5.3a2.91 2.91 0 011.65-3.73l5.22-2a2.91 2.91 0 001.38-4.27l-3-4.78a2.93 2.93 0 01.85-4l4.69-3.09a2.92 2.92 0 00.48-4.46zm-74.16 64.24c-36.22 0-65.59-29.77-65.59-66.51s29.37-66.5 65.59-66.5 65.6 29.77 65.6 66.5-29.37 66.51-65.6 66.51z" fill="#059290"/></svg>