<svg width="346" height="387" xmlns="http://www.w3.org/2000/svg" viewBox="0 0 344.25 386.12"><path d="M246.12 307.14l5-3.31a3.75 3.75 0 00.59-5.73l-4.21-4.3a3.76 3.76 0 010-5.24l4.21-4.29a3.75 3.75 0 00-.59-5.73l-5-3.31a3.74 3.74 0 01-1.07-5.13l3.23-5.09a3.73 3.73 0 00-1.76-5.48l-5.52-2.19a3.73 3.73 0 01-2.1-4.79l2.1-5.65a3.72 3.72 0 00-2.85-5l-5.89-1a3.71 3.71 0 01-3-4.24l.92-6a3.7 3.7 0 00-3.81-4.28l-6 .29a3.68 3.68 0 01-3.84-3.5l-.33-6a3.67 3.67 0 00-4.6-3.39l-5.77 1.54a3.65 3.65 0 01-4.48-2.62l-1.56-5.84a3.66 3.66 0 00-5.2-2.34l-5.32 2.73a3.65 3.65 0 01-4.92-1.62l-2.73-5.38a3.63 3.63 0 00-5.56-1.2l-4.65 3.79a3.63 3.63 0 01-5.14-.55l-3.77-4.69a3.65 3.65 0 00-5.69 0l-3.81 4.71a3.63 3.63 0 01-5.14.55l-4.65-3.79a3.63 3.63 0 00-5.56 1.2l-2.73 5.38a3.65 3.65 0 01-4.92 1.62l-5.32-2.73a3.66 3.66 0 00-5.2 2.35l-1.56 5.83a3.67 3.67 0 01-4.48 2.63l-5.77-1.55a3.68 3.68 0 00-4.6 3.39l-.33 6a3.69 3.69 0 01-3.84 3.51l-6-.3a3.7 3.7 0 00-3.81 4.28l.92 6a3.71 3.71 0 01-3 4.24l-5.89 1a3.72 3.72 0 00-2.85 5l2.12 5.66a3.73 3.73 0 01-2.1 4.79l-5.56 2.18A3.75 3.75 0 0071 265l3.23 5.08a3.74 3.74 0 01-1.07 5.13l-5 3.31a3.74 3.74 0 00-.6 5.73l4.21 4.3a3.76 3.76 0 010 5.24l-4.21 4.29a3.74 3.74 0 00.6 5.73l5 3.32a3.73 3.73 0 011.07 5.12L71 317.36a3.73 3.73 0 001.76 5.48l5.55 2.16a3.75 3.75 0 012.11 4.79l-2.12 5.65a3.72 3.72 0 002.84 5l5.89 1a3.71 3.71 0 013 4.24l-.92 6a3.7 3.7 0 003.89 4.25l6-.29a3.68 3.68 0 013.84 3.51l.33 6a3.67 3.67 0 004.61 3.38l5.76-1.54a3.66 3.66 0 014.48 2.62l1.56 5.84a3.66 3.66 0 005.2 2.34l5.22-2.69a3.64 3.64 0 014.91 1.62l2.73 5.38a3.63 3.63 0 005.56 1.2l4.65-3.79a3.63 3.63 0 015.14.55l3.77 4.69a3.65 3.65 0 005.69 0l3.77-4.69a3.63 3.63 0 015.14-.55l4.64 3.79a3.65 3.65 0 005.57-1.2l2.72-5.38a3.65 3.65 0 014.92-1.62l5.32 2.73a3.66 3.66 0 005.2-2.34l1.56-5.84a3.65 3.65 0 014.48-2.62l5.77 1.54a3.67 3.67 0 004.6-3.39l.33-6a3.69 3.69 0 013.84-3.51l6 .3a3.7 3.7 0 003.81-4.28l-.92-6a3.72 3.72 0 013-4.24l5.89-1a3.72 3.72 0 002.85-5l-2.12-5.66A3.73 3.73 0 01241 325l5.56-2.18a3.75 3.75 0 001.76-5.49l-3.23-5.08a3.74 3.74 0 011.03-5.11zm-86.48 25.54c-22.61 0-40.93-18.58-40.93-41.49s18.32-41.5 40.93-41.5 40.92 18.58 40.92 41.5-18.32 41.49-40.92 41.49zm100.83-239.2a2.11 2.11 0 000-3.25l-3-2.51a2.11 2.11 0 01-.29-2.94l2.45-3.07a2.13 2.13 0 00-.66-3.19l-3.46-1.81a2.13 2.13 0 01-.9-2.82l1.77-3.52a2.1 2.1 0 00-1.3-3l-3.75-1a2.12 2.12 0 01-1.46-2.57l1-3.82a2.1 2.1 0 00-1.87-2.66l-3.89-.23a2.08 2.08 0 01-1.94-2.2l.2-4a2.08 2.08 0 00-2.37-2.13l-3.85.59a2.07 2.07 0 01-2.36-1.75l-.61-3.9a2.06 2.06 0 00-2.77-1.63l-3.65 1.39a2 2 0 01-2.66-1.21l-1.4-3.69a2.06 2.06 0 00-3.05-1l-3.28 2.13a2.07 2.07 0 01-2.86-.63l-2.12-3.31a2.06 2.06 0 00-3.19-.35l-2.77 2.78a2.06 2.06 0 01-2.92 0l-2.76-2.79a2.05 2.05 0 00-3.19.33L195.41 39a2.06 2.06 0 01-2.86.6l-3.27-2.15a2.05 2.05 0 00-3.05 1l-1.42 3.68a2.06 2.06 0 01-2.67 1.19l-3.64-1.41a2.08 2.08 0 00-2.79 1.62l-.63 3.9a2.08 2.08 0 01-2.37 1.73l-3.84-.62a2.08 2.08 0 00-2.4 2.17l.18 3.95a2.08 2.08 0 01-2 2.19l-3.89.21a2.09 2.09 0 00-1.89 2.63l1 3.82a2.1 2.1 0 01-1.46 2.56l-3.77 1a2.11 2.11 0 00-1.31 3l1.75 3.53a2.11 2.11 0 01-.91 2.81l-3.47 1.8a2.11 2.11 0 00-.68 3.18l2.43 3.08a2.13 2.13 0 01-.31 3l-3 2.48a2.13 2.13 0 000 3.26l3 2.5a2.12 2.12 0 01.3 2.95l-2.44 3.01a2.1 2.1 0 00.66 3.18l3.46 1.82a2.11 2.11 0 01.89 2.82l-1.79 3.51a2.11 2.11 0 001.3 3l3.76 1a2.11 2.11 0 011.45 2.57l-1 3.81a2.09 2.09 0 001.88 2.64l3.89.23a2.1 2.1 0 011.95 2.21l-.2 3.94a2.08 2.08 0 002.38 2.19l3.85-.6a2.07 2.07 0 012.35 1.75l.61 3.9a2.07 2.07 0 002.78 1.64l3.64-1.39a2.06 2.06 0 012.67 1.21l1.4 3.68a2.05 2.05 0 003.05 1l3.28-2.13a2 2 0 012.85.62l2.12 3.31a2.06 2.06 0 003.2.35l2.77-2.77a2 2 0 012.92 0l2.75 2.79a2.06 2.06 0 003.2-.33l2.14-3.3a2.06 2.06 0 012.86-.61l3.26 2.15a2.06 2.06 0 003.06-1l1.42-3.68a2.06 2.06 0 012.67-1.2l3.63 1.42a2.08 2.08 0 002.79-1.62l.63-3.9a2.08 2.08 0 012.37-1.73l3.85.61a2.08 2.08 0 002.39-2.17l-.18-3.94a2.09 2.09 0 012-2.2l3.89-.2a2.1 2.1 0 001.9-2.63l-1-3.82a2.1 2.1 0 011.47-2.56l3.76-1a2.12 2.12 0 001.32-3l-1.75-3.52a2.12 2.12 0 01.91-2.82l3.47-1.79a2.11 2.11 0 00.68-3.18l-2.44-3.09a2.11 2.11 0 01.32-2.94zm-55.67 39.7c-22.6 0-40.92-18.58-40.92-41.49s18.32-41.5 40.92-41.5 40.93 18.58 40.93 41.5-18.32 41.49-40.93 41.49zm136.45 47.95a1.84 1.84 0 010-2.55l2.47-2.5a1.83 1.83 0 00-.28-2.79l-2.92-1.94a1.84 1.84 0 01-.51-2.5l1.9-3a1.81 1.81 0 00-.85-2.66l-3.25-1.29a1.81 1.81 0 01-1-2.33l1.25-3.31a1.81 1.81 0 00-1.38-2.43l-3.44-.57a1.81 1.81 0 01-1.47-2.07l.54-3.49a1.8 1.8 0 00-1.84-2.09l-3.49.16a1.79 1.79 0 01-1.86-1.71l-.18-3.53a1.79 1.79 0 00-2.23-1.65l-3.38.89a1.78 1.78 0 01-2.17-1.28l-.91-3.42a1.78 1.78 0 00-2.52-1.15l-3.12 1.59a1.76 1.76 0 01-2.38-.79l-1.59-3.16a1.77 1.77 0 00-2.7-.59l-2.73 2.21a1.76 1.76 0 01-2.49-.27l-2.2-2.75a1.77 1.77 0 00-2.76 0l-2.22 2.74a1.77 1.77 0 01-2.5.26l-2.71-2.16a1.78 1.78 0 00-2.71.57l-1.6 3.15a1.77 1.77 0 01-2.39.78l-3.11-1.61A1.78 1.78 0 00274 135l-.92 3.41a1.78 1.78 0 01-2.18 1.27l-3.37-.91a1.79 1.79 0 00-2.25 1.64l-.2 3.53a1.79 1.79 0 01-1.87 1.7l-3.49-.19a1.8 1.8 0 00-1.85 2.08l.52 3.5a1.81 1.81 0 01-1.48 2.06l-3.45.55a1.81 1.81 0 00-1.39 2.42l1.23 3.31a1.82 1.82 0 01-1 2.33l-3.3 1.24a1.81 1.81 0 00-.87 2.66l1.89 3a1.82 1.82 0 01-.53 2.49l-2.92 1.91a1.82 1.82 0 00-.3 2.78l2.46 2.52a1.84 1.84 0 010 2.55l-2.47 2.5a1.83 1.83 0 00.28 2.79l2.92 1.94a1.84 1.84 0 01.51 2.5l-1.9 3a1.83 1.83 0 00.85 2.67l3.25 1.29a1.81 1.81 0 011 2.33l-1.25 3.3a1.81 1.81 0 001.38 2.43l3.44.58a1.8 1.8 0 011.47 2.07l-.54 3.49a1.8 1.8 0 001.84 2.09l3.49-.16a1.79 1.79 0 011.86 1.71l.18 3.53a1.79 1.79 0 002.23 1.65l3.38-.89a1.78 1.78 0 012.17 1.28l.91 3.42a1.77 1.77 0 002.52 1.14l3.12-1.58a1.76 1.76 0 012.38.79l1.59 3.15a1.77 1.77 0 002.7.6l2.73-2.21a1.75 1.75 0 012.49.27l2.2 2.75a1.77 1.77 0 002.76 0l2.22-2.74a1.77 1.77 0 012.5-.26l2.71 2.23a1.77 1.77 0 002.71-.58l1.6-3.14a1.77 1.77 0 012.39-.78l3.11 1.61a1.78 1.78 0 002.53-1.13l.92-3.42a1.78 1.78 0 012.18-1.26l3.38.91a1.79 1.79 0 002.24-1.64l.2-3.53a1.79 1.79 0 011.87-1.7l3.49.18a1.79 1.79 0 001.85-2.07l-.52-3.5a1.81 1.81 0 011.48-2.06l3.45-.55a1.81 1.81 0 001.39-2.42l-1.23-3.31a1.82 1.82 0 011-2.33l3.25-1.27a1.81 1.81 0 00.87-2.66l-1.89-3a1.82 1.82 0 01.53-2.49l2.93-1.93a1.82 1.82 0 00.3-2.78zM295 221.21c-22.6 0-40.93-18.58-40.93-41.5s18.33-41.49 40.93-41.49 40.93 18.58 40.93 41.49-18.34 41.5-40.93 41.5z" fill="#299c92" opacity=".82"/><path d="M6.65 198.51l-5 3.31a3.75 3.75 0 00-.59 5.73l4.2 4.3a3.76 3.76 0 010 5.24l-4.2 4.29a3.75 3.75 0 00.59 5.73l5 3.32a3.74 3.74 0 011.08 5.12l-3.23 5.09a3.74 3.74 0 001.75 5.48l5.57 2.19a3.73 3.73 0 012.1 4.79l-2.12 5.65a3.73 3.73 0 002.84 5l5.89 1a3.71 3.71 0 013 4.24l-.91 6a3.7 3.7 0 003.81 4.28l6-.29a3.69 3.69 0 013.85 3.51l.33 6a3.67 3.67 0 004.6 3.38l5.79-1.56a3.66 3.66 0 014.48 2.62l1.52 5.84a3.66 3.66 0 005.2 2.34l5.32-2.73a3.65 3.65 0 014.93 1.62l2.72 5.38a3.65 3.65 0 005.57 1.2l4.65-3.79a3.63 3.63 0 015.14.55L90.3 308a3.65 3.65 0 005.7 0l3.77-4.69a3.63 3.63 0 015.14-.55l4.65 3.79a3.63 3.63 0 005.56-1.2l2.73-5.38a3.64 3.64 0 014.91-1.62l5.33 2.73a3.65 3.65 0 005.19-2.34l1.57-5.84a3.65 3.65 0 014.48-2.62l5.76 1.54a3.68 3.68 0 004.61-3.39l.33-6a3.67 3.67 0 013.84-3.5l6 .29a3.69 3.69 0 003.8-4.28l-.91-6a3.71 3.71 0 013-4.24l5.89-1a3.72 3.72 0 002.84-5l-2.12-5.66a3.74 3.74 0 012.11-4.79l5.56-2.18a3.76 3.76 0 001.76-5.49l-3.24-5.08a3.75 3.75 0 011.08-5.13l5-3.31a3.75 3.75 0 00.6-5.73l-4.24-4.24a3.77 3.77 0 010-5.25l4.2-4.29a3.75 3.75 0 00-.59-5.73l-5-3.31a3.75 3.75 0 01-1.08-5.13l3.24-5.09a3.75 3.75 0 00-1.76-5.48l-5.57-2.19a3.73 3.73 0 01-2.1-4.79l2.12-5.65a3.72 3.72 0 00-2.84-5l-5.89-1a3.71 3.71 0 01-3-4.24l.91-6a3.69 3.69 0 00-3.8-4.28l-6 .29a3.69 3.69 0 01-3.85-3.5l-.33-6a3.67 3.67 0 00-4.6-3.39l-5.77 1.54a3.65 3.65 0 01-4.48-2.62l-1.56-5.84a3.65 3.65 0 00-5.19-2.34l-5.33 2.73a3.65 3.65 0 01-4.92-1.62l-2.72-5.38a3.64 3.64 0 00-5.57-1.2l-4.64 3.79a3.64 3.64 0 01-5.15-.55L96 120.9a3.64 3.64 0 00-5.68 0l-3.77 4.69a3.64 3.64 0 01-5.15.55l-4.65-3.79a3.63 3.63 0 00-5.56 1.2l-2.72 5.38a3.65 3.65 0 01-4.92 1.62l-5.33-2.73a3.65 3.65 0 00-5.22 2.35L51.44 136a3.65 3.65 0 01-4.44 2.63l-5.77-1.55a3.68 3.68 0 00-4.6 3.39l-.33 6a3.7 3.7 0 01-3.88 3.53l-6-.3a3.69 3.69 0 00-3.8 4.28l.91 6a3.71 3.71 0 01-3 4.24l-5.89 1a3.72 3.72 0 00-2.84 5l2.12 5.66a3.73 3.73 0 01-2.1 4.79l-5.57 2.18a3.75 3.75 0 00-1.75 5.45l3.23 5.08a3.75 3.75 0 01-1.08 5.13zM93.14 173c22.6 0 40.93 18.58 40.93 41.5S115.74 256 93.14 256s-40.92-18.58-40.92-41.49S70.54 173 93.14 173zm100.17-48.34a2.46 2.46 0 00-.38 3.76l3.14 3.19a2.47 2.47 0 010 3.45l-3.07 3.21a2.45 2.45 0 00.4 3.76l3.72 2.46a2.47 2.47 0 01.72 3.37l-2.4 3.8a2.46 2.46 0 001.16 3.6l4.15 1.61a2.46 2.46 0 011.35 3.13l-1.57 4.22a2.44 2.44 0 001.88 3.27l4.39.71a2.44 2.44 0 012 2.78l-.67 4.46a2.43 2.43 0 002.5 2.81l4.44-.23a2.43 2.43 0 012.54 2.3l.25 4.5a2.42 2.42 0 003 2.22l4.3-1.17a2.42 2.42 0 013 1.72l1.17 4.35a2.41 2.41 0 003.42 1.53l4-2a2.4 2.4 0 013.24 1.05l2 4a2.4 2.4 0 003.66.78l3.45-2.84a2.4 2.4 0 013.39.35l2.81 3.49a2.39 2.39 0 003.74 0l2.8-3.5a2.39 2.39 0 013.38-.37l3.47 2.82a2.41 2.41 0 003.66-.8l2-4a2.4 2.4 0 013.23-1.07l4 2a2.39 2.39 0 003.41-1.55l1.16-4.35a2.4 2.4 0 012.93-1.73l4.31 1.14a2.41 2.41 0 003-2.23l.24-4.51a2.43 2.43 0 012.52-2.31l4.44.21a2.44 2.44 0 002.5-2.82l-.7-4.45a2.46 2.46 0 012-2.8l4.39-.73a2.44 2.44 0 001.86-3.28l-1.64-4.23a2.45 2.45 0 011.37-3.15l4.15-1.64a2.46 2.46 0 001.14-3.61l-2.42-3.78a2.47 2.47 0 01.7-3.38l3.72-2.47a2.47 2.47 0 00.38-3.77l-3.14-3.19a2.47 2.47 0 010-3.45l3.12-3.2a2.46 2.46 0 00-.4-3.77l-3.72-2.46a2.46 2.46 0 01-.72-3.37l2.4-3.79a2.45 2.45 0 00-1.16-3.6l-4.15-1.62a2.45 2.45 0 01-1.39-3.15l1.57-4.21a2.45 2.45 0 00-1.88-3.28l-4.39-.71a2.44 2.44 0 01-2-2.78l.67-4.46a2.43 2.43 0 00-2.5-2.81l-4.44.23a2.42 2.42 0 01-2.53-2.32l-.25-4.51a2.42 2.42 0 00-3-2.21l-4.3 1.16a2.41 2.41 0 01-2.95-1.72l-1.17-4.34a2.41 2.41 0 00-3.42-1.54l-4 2a2.41 2.41 0 01-3.24-1.06l-2-4a2.39 2.39 0 00-3.66-.78l-3.46 2.83a2.38 2.38 0 01-3.38-.35l-2.81-3.49a2.4 2.4 0 00-3.74 0l-2.8 3.5a2.39 2.39 0 01-3.38.37l-3.47-2.81a2.4 2.4 0 00-3.66.79l-2 4a2.38 2.38 0 01-3.28 1.16l-4-2a2.39 2.39 0 00-3.41 1.55l-1.16 4.35a2.4 2.4 0 01-2.93 1.73l-4.31-1.14a2.41 2.41 0 00-3 2.24l-.24 4.5a2.43 2.43 0 01-2.52 2.31l-4.44-.21a2.44 2.44 0 00-2.5 2.82l.7 4.46a2.45 2.45 0 01-2 2.79l-4.39.73a2.44 2.44 0 00-1.86 3.29l1.59 4.21a2.46 2.46 0 01-1.38 3.15l-4.14 1.64a2.45 2.45 0 00-1.14 3.6l2.42 3.79a2.46 2.46 0 01-.7 3.37zm63.69-33c22.6 0 40.93 18.58 40.93 41.49S279.6 174.67 257 174.67s-40.93-18.57-40.93-41.49S234.4 91.69 257 91.69z" fill="#7bbfb7" opacity=".82"/><path d="M264.81 209.67a2.12 2.12 0 000-3.25l-3-2.51a2.11 2.11 0 01-.29-2.94l2.48-3.07a2.13 2.13 0 00-.66-3.19l-3.46-1.81a2.11 2.11 0 01-.89-2.82l1.76-3.52a2.1 2.1 0 00-1.29-3l-3.76-1a2.1 2.1 0 01-1.45-2.57l1-3.82a2.1 2.1 0 00-1.88-2.64l-3.88-.23a2.08 2.08 0 01-1.95-2.2l.2-4a2.08 2.08 0 00-2.38-2.18l-3.85.59a2.08 2.08 0 01-2.36-1.75l-.61-3.9a2.06 2.06 0 00-2.77-1.63l-3.65 1.39a2.06 2.06 0 01-2.66-1.21l-1.4-3.69a2.06 2.06 0 00-3.05-1l-3.28 2.13a2.05 2.05 0 01-2.85-.63l-2.13-3.31a2.06 2.06 0 00-3.19-.35l-2.77 2.78a2.06 2.06 0 01-2.92 0l-2.75-2.79a2.06 2.06 0 00-3.2.33l-2.14 3.3a2.06 2.06 0 01-2.86.6l-3.27-2.15a2.06 2.06 0 00-3.05 1l-1.42 3.68a2.06 2.06 0 01-2.67 1.19l-3.64-1.41a2.06 2.06 0 00-2.78 1.62l-.64 3.89a2.07 2.07 0 01-2.36 1.74l-3.85-.62a2.08 2.08 0 00-2.39 2.17l.18 3.95a2.09 2.09 0 01-2 2.19l-3.89.21a2.1 2.1 0 00-1.9 2.63l1 3.82a2.11 2.11 0 01-1.47 2.56l-3.76 1a2.11 2.11 0 00-1.32 3l1.75 3.53a2.11 2.11 0 01-.91 2.81l-3.47 1.8a2.11 2.11 0 00-.68 3.18l2.43 3.08a2.13 2.13 0 01-.31 2.95l-3 2.48a2.13 2.13 0 000 3.26l3 2.5a2.12 2.12 0 01.29 2.95l-2.45 3.07A2.11 2.11 0 00155 221l3.46 1.82a2.11 2.11 0 01.89 2.82l-1.76 3.52a2.1 2.1 0 001.29 3l3.76 1.05a2.1 2.1 0 011.45 2.57l-1 3.81a2.09 2.09 0 001.87 2.64l3.89.23a2.1 2.1 0 012 2.21l-.2 3.94a2.08 2.08 0 002.38 2.19l3.85-.6a2.09 2.09 0 012.36 1.75l.61 3.9a2.06 2.06 0 002.77 1.64l3.65-1.39a2.06 2.06 0 012.66 1.21l1.4 3.68a2.06 2.06 0 003.05 1l3.28-2.13a2 2 0 012.85.62l2.12 3.31a2.06 2.06 0 003.2.35l2.77-2.77a2 2 0 012.92 0l2.75 2.79a2.06 2.06 0 003.2-.33l2.14-3.3a2.06 2.06 0 012.86-.61l3.26 2.15a2.06 2.06 0 003.06-1l1.42-3.68a2.06 2.06 0 012.67-1.2l3.64 1.42a2.07 2.07 0 002.78-1.62l.64-3.9a2.07 2.07 0 012.36-1.73l3.85.61a2.08 2.08 0 002.39-2.17l-.18-3.94a2.1 2.1 0 012-2.2l3.89-.2a2.1 2.1 0 001.9-2.63l-1-3.82a2.11 2.11 0 011.47-2.56l3.76-1a2.11 2.11 0 001.32-3l-1.86-3.45a2.12 2.12 0 01.91-2.81l3.47-1.79a2.11 2.11 0 00.68-3.18l-2.43-3.09a2.1 2.1 0 01.31-2.94zm-55.68 39.7c-22.6 0-40.92-18.58-40.92-41.49s18.32-41.5 40.92-41.5 40.93 18.58 40.93 41.5-18.32 41.49-40.93 41.49zM292 51.61a1.83 1.83 0 010-2.55l2.47-2.5a1.83 1.83 0 00-.28-2.79l-2.92-1.94a1.82 1.82 0 01-.51-2.5l1.9-3a1.81 1.81 0 00-.85-2.66l-3.25-1.29a1.81 1.81 0 01-1-2.33l1.25-3.31a1.81 1.81 0 00-1.38-2.43l-3.43-.54a1.8 1.8 0 01-1.47-2.07l.54-3.49a1.8 1.8 0 00-1.84-2.09l-3.49.16a1.78 1.78 0 01-1.86-1.71l-.2-3.57a1.79 1.79 0 00-2.23-1.65l-3.38.89A1.78 1.78 0 01267.9 9l-.9-3.42a1.78 1.78 0 00-2.52-1.15L261.35 6a1.76 1.76 0 01-2.35-.77l-1.59-3.16a1.77 1.77 0 00-2.7-.59L252 3.69a1.77 1.77 0 01-2.5-.27L247.26.67a1.78 1.78 0 00-2.77 0l-2.21 2.73a1.77 1.77 0 01-2.5.26l-2.71-2.23a1.78 1.78 0 00-2.71.57l-1.6 3.15a1.77 1.77 0 01-2.39.78l-3.11-1.61a1.78 1.78 0 00-2.53 1.13l-.93 3.42a1.77 1.77 0 01-2.17 1.26l-3.38-.91a1.78 1.78 0 00-2.25 1.64l-.2 3.53a1.8 1.8 0 01-1.87 1.7l-3.49-.19a1.8 1.8 0 00-1.84 2.1l.52 3.5a1.81 1.81 0 01-1.48 2.06l-3.45.55a1.8 1.8 0 00-1.39 2.42l1.2 3.29a1.82 1.82 0 01-1 2.33l-3.26 1.27a1.82 1.82 0 00-.86 2.66l1.88 3a1.82 1.82 0 01-.52 2.49l-2.93 1.93a1.82 1.82 0 00-.3 2.78l2.45 2.52a1.83 1.83 0 010 2.55L197 53.83a1.83 1.83 0 00.28 2.79l2.91 1.94a1.83 1.83 0 01.52 2.5l-1.9 3a1.81 1.81 0 00.85 2.67L202.9 68a1.81 1.81 0 011 2.33l-1.25 3.3a1.82 1.82 0 001.35 2.42l3.44.57a1.8 1.8 0 011.56 2.07l-.55 3.49a1.81 1.81 0 001.85 2.09l3.48-.16a1.79 1.79 0 011.87 1.71l.18 3.53A1.79 1.79 0 00218 91l3.38-.89a1.78 1.78 0 012.17 1.28l.9 3.42A1.78 1.78 0 00227 96l3.11-1.58a1.77 1.77 0 012.39.79l1.59 3.15a1.77 1.77 0 002.7.6l2.72-2.21A1.77 1.77 0 01242 97l2.2 2.75a1.77 1.77 0 002.76 0l2.22-2.75a1.77 1.77 0 012.5-.26l2.71 2.26a1.76 1.76 0 002.7-.58l1.61-3.14a1.77 1.77 0 012.39-.78l3.11 1.61a1.78 1.78 0 002.53-1.13l.92-3.42a1.78 1.78 0 012.18-1.26l3.37.91a1.78 1.78 0 002.24-1.64l.21-3.53a1.79 1.79 0 011.87-1.7l3.49.18a1.79 1.79 0 001.85-2.07l-.52-3.5a1.81 1.81 0 011.48-2.06l3.45-.55a1.82 1.82 0 001.39-2.42l-1.23-3.31a1.82 1.82 0 011-2.33l3.28-1.28a1.81 1.81 0 00.86-2.66l-1.88-3a1.82 1.82 0 01.53-2.49l2.93-1.93a1.82 1.82 0 00.3-2.78zm-46.27 40.08c-22.6 0-40.93-18.58-40.93-41.5S223.13 8.7 245.73 8.7s40.92 18.58 40.92 41.49-18.32 41.5-40.92 41.5zM104.19 304.23a1.82 1.82 0 010-2.55l2.46-2.5a1.82 1.82 0 00-.28-2.79l-2.91-1.94A1.83 1.83 0 01103 292l1.9-3a1.82 1.82 0 00-.84-2.67l-3.3-1.33a1.81 1.81 0 01-1-2.33l1.25-3.3a1.8 1.8 0 00-1.39-2.37l-3.45-.58a1.81 1.81 0 01-1.47-2.06l.55-3.5a1.81 1.81 0 00-1.85-2.09l-3.48.17a1.8 1.8 0 01-1.86-1.72l-.19-3.53a1.79 1.79 0 00-2.23-1.69l-3.38.89a1.78 1.78 0 01-2.17-1.28l-.9-3.42a1.77 1.77 0 00-2.52-1.14l-3.12 1.58a1.77 1.77 0 01-2.39-.79l-1.59-3.15a1.76 1.76 0 00-2.7-.59l-2.72 2.21a1.77 1.77 0 01-2.5-.28l-2.2-2.75a1.77 1.77 0 00-2.76 0L54.48 256a1.77 1.77 0 01-2.5.26l-2.72-2.23a1.77 1.77 0 00-2.7.58L45 257.77a1.77 1.77 0 01-2.39.78l-3.11-1.61a1.78 1.78 0 00-2.53 1.13l-.97 3.42a1.77 1.77 0 01-2.18 1.26l-3.37-.91a1.78 1.78 0 00-2.24 1.64L28 267a1.79 1.79 0 01-1.87 1.7l-3.48-.18a1.8 1.8 0 00-1.86 2.07l.52 3.5a1.81 1.81 0 01-1.48 2.06l-3.45.55a1.8 1.8 0 00-1.38 2.43l1.23 3.32a1.82 1.82 0 01-1 2.32L11.94 286a1.82 1.82 0 00-.86 2.66l1.88 3a1.82 1.82 0 01-.53 2.49L9.5 296.1a1.82 1.82 0 00-.29 2.78l2.45 2.52a1.83 1.83 0 010 2.55l-2.47 2.5a1.83 1.83 0 00.28 2.79l2.92 1.94a1.82 1.82 0 01.51 2.5l-1.9 3a1.81 1.81 0 00.85 2.66l3.25 1.29a1.82 1.82 0 011 2.33l-1.25 3.31a1.81 1.81 0 001.37 2.43l3.44.57a1.82 1.82 0 011.48 2.07l-.55 3.49a1.8 1.8 0 001.84 2.09l3.49-.16a1.79 1.79 0 011.86 1.71L28 342a1.8 1.8 0 002.24 1.66l3.37-.9a1.78 1.78 0 012.14 1.24l.91 3.42a1.78 1.78 0 002.52 1.15L42.3 347a1.77 1.77 0 012.39.79l1.58 3.16a1.77 1.77 0 002.7.59l2.73-2.21a1.77 1.77 0 012.5.27l2.19 2.75a1.78 1.78 0 002.77 0l2.21-2.74a1.78 1.78 0 012.5-.26l2.71 2.23a1.78 1.78 0 002.71-.57l1.6-3.15a1.77 1.77 0 012.39-.78l3.11 1.61a1.78 1.78 0 002.53-1.13l.93-3.41a1.78 1.78 0 012.15-1.27l3.37.91a1.78 1.78 0 002.24-1.64l.2-3.53a1.8 1.8 0 011.88-1.7l3.48.19a1.8 1.8 0 001.89-2.11l-.53-3.5a1.8 1.8 0 011.48-2l3.45-.56a1.8 1.8 0 001.39-2.42l-1.23-3.31a1.82 1.82 0 011-2.33l3.26-1.27a1.82 1.82 0 00.86-2.66l-1.88-3a1.81 1.81 0 01.53-2.49l2.92-1.93a1.82 1.82 0 00.3-2.78zm-46.27 40.08c-22.6 0-40.92-18.58-40.92-41.49s18.32-41.5 40.92-41.5 40.93 18.58 40.93 41.5-18.32 41.49-40.93 41.49z" fill="#baded1" opacity=".82"/></svg>