<svg width="197" height="84" xmlns="http://www.w3.org/2000/svg" viewBox="0 0 494.2 209.67"><ellipse cx="103.4" cy="104.83" rx="103.4" ry="104.83" fill="none"/><path d="M199.77 109.23a5.85 5.85 0 010-8.17l1.83-1.86a5.84 5.84 0 00-.9-8.94l-2.16-1.44a5.85 5.85 0 01-1.65-8l1.41-2.2a5.83 5.83 0 00-2.71-8.55l-2.41-1a5.82 5.82 0 01-3.26-7.47l.93-2.46a5.8 5.8 0 00-4.41-7.79l-2.53-.35a5.79 5.79 0 01-4.72-6.62l.41-2.6a5.77 5.77 0 00-5.91-6.69l-2.59.12a5.76 5.76 0 01-6-5.49l-.1-2.66a5.73 5.73 0 00-7.16-5.3l-2.5.66a5.72 5.72 0 01-7-4.11l-.67-2.53a5.7 5.7 0 00-8.08-3.69l-2.32 1.18a5.68 5.68 0 01-7.66-2.55l-1.17-2.34a5.67 5.67 0 00-8.66-1.89l-2 1.64a5.67 5.67 0 01-8-.88l-1.63-2a5.66 5.66 0 00-8.86 0l-1.64 2a5.68 5.68 0 01-8 .83l-2-1.66a5.68 5.68 0 00-8.68 1.84l-1.19 2.34a5.68 5.68 0 01-7.67 2.5l-2.31-1.2a5.7 5.7 0 00-8.1 3.63L59 18a5.71 5.71 0 01-7 4.07l-2.5-.68a5.73 5.73 0 00-7.19 5.26l-.15 2.62a5.74 5.74 0 01-6 5.44l-2.58-.13a5.76 5.76 0 00-5.95 6.66l.37 2.61a5.8 5.8 0 01-4.76 6.6l-2.56.41a5.79 5.79 0 00-4.45 7.76l.91 2.46a5.82 5.82 0 01-3.3 7.45l-2.42.94A5.84 5.84 0 008.64 78L10 80.22a5.84 5.84 0 01-1.7 8l-2.13 1.42a5.84 5.84 0 00-1 8.93L7 100.44a5.85 5.85 0 010 8.17l-1.83 1.86a5.84 5.84 0 00.9 8.94l2.16 1.44a5.85 5.85 0 011.65 8l-1.41 2.2a5.83 5.83 0 002.71 8.55l2.41 1a5.82 5.82 0 013.27 7.4l-.93 2.45a5.8 5.8 0 004.41 7.8l2.55.43a5.79 5.79 0 014.72 6.62l-.41 2.6a5.77 5.77 0 005.91 6.69l2.59-.12a5.74 5.74 0 016 5.49l.14 2.62a5.73 5.73 0 007.15 5.3l2.5-.66a5.71 5.71 0 017 4.11l.67 2.53a5.69 5.69 0 008.08 3.68l2.32-1.17a5.68 5.68 0 017.6 2.63l1.17 2.33a5.67 5.67 0 008.66 1.9l2-1.64a5.66 5.66 0 018 .88l1.63 2a5.67 5.67 0 008.86 0l1.64-2a5.68 5.68 0 018-.83l2 1.65a5.68 5.68 0 008.68-1.84l1.19-2.33a5.68 5.68 0 017.67-2.5l2.34 1.18a5.69 5.69 0 008.1-3.62l.69-2.54a5.71 5.71 0 017-4.06l2.5.68a5.73 5.73 0 007.19-5.26l.15-2.62a5.76 5.76 0 016-5.45l2.58.14a5.76 5.76 0 005.95-6.66l-.39-2.59a5.8 5.8 0 014.76-6.6l2.56-.41a5.8 5.8 0 004.45-7.77l-.91-2.45a5.83 5.83 0 013.3-7.46l2.42-.94a5.82 5.82 0 002.77-8.53l-1.4-2.21a5.84 5.84 0 011.7-8l2.17-1.43a5.84 5.84 0 001-8.93zm-96.37 33.9c-20.86 0-37.77-17.15-37.77-38.3s16.91-38.29 37.77-38.29 37.77 17.14 37.77 38.29-16.91 38.3-37.77 38.3z" fill="#059290"/><path d="M195.23 108.58a4.52 4.52 0 000-6.94l-3.36-2.79a4.53 4.53 0 01-.64-6.28l2.77-3.43a4.5 4.5 0 00-1.41-6.79l-3.86-2a4.5 4.5 0 01-1.9-6l2-3.93A4.49 4.49 0 00186 64l-4.19-1.17a4.47 4.47 0 01-3.09-5.47l1.12-4.26a4.46 4.46 0 00-4-5.62l-4.34-.26a4.47 4.47 0 01-4.15-4.71l.23-4.39a4.44 4.44 0 00-5.08-4.66l-4.29.66a4.43 4.43 0 01-5-3.73l-.68-4.35a4.41 4.41 0 00-5.92-3.49l-4.06 1.56a4.41 4.41 0 01-5.68-2.59l-1.56-4.11a4.39 4.39 0 00-6.51-2.16l-3.65 2.37a4.38 4.38 0 01-6.15-1.29l-2.37-3.69a4.37 4.37 0 00-6.8-.75L106.78 15a4.38 4.38 0 01-6.23 0l-3.07-3.12a4.38 4.38 0 00-6.81.71l-2.39 3.68a4.38 4.38 0 01-6.1 1.29l-3.64-2.4a4.4 4.4 0 00-6.54 2.1l-1.58 4.1a4.39 4.39 0 01-5.7 2.55l-4-1.57a4.41 4.41 0 00-5.94 3.45L54 30.14a4.43 4.43 0 01-5 3.69l-4.3-.69a4.44 4.44 0 00-5.1 4.63l.2 4.4a4.45 4.45 0 01-4.18 4.68l-4.34.23a4.48 4.48 0 00-4 5.61L28.34 57a4.47 4.47 0 01-3.13 5.45L21 63.55a4.49 4.49 0 00-2.81 6.33l1.95 3.94a4.5 4.5 0 01-1.94 6l-3.87 2a4.51 4.51 0 00-1.44 6.79L15.62 92a4.51 4.51 0 01-.62 6.31l-3.37 2.78a4.51 4.51 0 000 6.94l3.36 2.79a4.53 4.53 0 01.63 6.28l-2.74 3.43a4.5 4.5 0 001.41 6.79l3.86 2a4.52 4.52 0 011.9 6l-2 3.93a4.49 4.49 0 002.77 6.35l4.18 1.19a4.49 4.49 0 013.09 5.48l-1.12 4.26a4.47 4.47 0 004 5.62l4.34.26a4.46 4.46 0 014.15 4.7l-.23 4.4a4.44 4.44 0 005.08 4.66l4.29-.66a4.43 4.43 0 015 3.73l.68 4.35a4.41 4.41 0 005.92 3.48l4.06-1.55a4.39 4.39 0 015.74 2.59l1.56 4.11a4.39 4.39 0 006.44 2.16l3.67-2.38a4.38 4.38 0 016.09 1.33l2.37 3.67a4.37 4.37 0 006.8.75l3.1-3.1a4.37 4.37 0 016.22 0l3.07 3.11a4.38 4.38 0 006.82-.7l2.38-3.68a4.39 4.39 0 016.1-1.3l3.64 2.4a4.39 4.39 0 006.52-2.12l1.58-4.11a4.41 4.41 0 015.7-2.55l4.05 1.58a4.41 4.41 0 005.94-3.45l.71-4.35a4.41 4.41 0 015.05-3.69l4.29.69a4.44 4.44 0 005.1-4.63l-.2-4.4a4.45 4.45 0 014.18-4.68l4.34-.23a4.48 4.48 0 004-5.61l-1.1-4.26a4.48 4.48 0 013.13-5.46l4.19-1.14a4.49 4.49 0 002.81-6.33l-2-3.94a4.5 4.5 0 011.94-6l3.87-2a4.5 4.5 0 001.44-6.78l-2.71-3.44a4.52 4.52 0 01.67-6.28zm-91.83 34.55c-20.86 0-37.77-17.15-37.77-38.3s16.91-38.29 37.77-38.29 37.77 17.14 37.77 38.29-16.91 38.3-37.77 38.3z" fill="#8ac6bf"/><path d="M183.22 119.56l4.61-3.06a3.46 3.46 0 00.55-5.29l-3.88-4a3.47 3.47 0 010-4.84l3.88-4a3.46 3.46 0 00-.55-5.29l-4.61-3.06a3.45 3.45 0 01-1-4.73l3-4.69a3.44 3.44 0 00-1.62-5.06l-5.13-2a3.44 3.44 0 01-1.94-4.42l1.94-5.12a3.44 3.44 0 00-2.62-4.61l-5.44-.89a3.42 3.42 0 01-2.8-3.91l.84-5.52a3.42 3.42 0 00-3.51-4l-5.5.28a3.4 3.4 0 01-3.55-3.24l-.31-5.57a3.39 3.39 0 00-4.24-3.13L146 34.84a3.38 3.38 0 01-4.13-2.42L140.44 27a3.38 3.38 0 00-4.8-2.17l-4.91 2.52a3.36 3.36 0 01-4.54-1.49l-2.52-5a3.35 3.35 0 00-5.13-1.1l-4.29 3.5a3.36 3.36 0 01-4.75-.51l-3.5-4.27a3.36 3.36 0 00-5.25 0l-3.45 4.33a3.36 3.36 0 01-4.75.51l-4.29-3.5a3.36 3.36 0 00-5.14 1.1l-2.51 5a3.35 3.35 0 01-4.54 1.49l-4.92-2.51a3.37 3.37 0 00-4.79 2.1l-1.44 5.39a3.39 3.39 0 01-4.14 2.42l-5.32-1.43a3.4 3.4 0 00-4.25 3.13l-.3 5.57a3.41 3.41 0 01-3.55 3.24l-5.5-.27a3.41 3.41 0 00-3.51 4l.84 5.52a3.42 3.42 0 01-2.8 3.91l-5.44.9A3.42 3.42 0 0028.33 64l2 5.22a3.43 3.43 0 01-1.94 4.42l-5.13 2a3.45 3.45 0 00-1.62 5.06l3 4.69a3.47 3.47 0 01-1 4.74l-4.61 3a3.47 3.47 0 00-.55 5.3l3.88 4a3.47 3.47 0 010 4.84l-3.88 4a3.46 3.46 0 00.55 5.29l4.61 3a3.47 3.47 0 011 4.74l-3 4.69a3.45 3.45 0 001.62 5.06l5.13 2a3.45 3.45 0 011.95 4.42l-2 5.22a3.44 3.44 0 002.66 4.63l5.44.89a3.42 3.42 0 012.8 3.91l-.84 5.52a3.41 3.41 0 003.51 4l5.5-.27a3.4 3.4 0 013.55 3.24l.31 5.57a3.39 3.39 0 004.24 3.13l5.33-1.43a3.38 3.38 0 014.13 2.42l1.44 5.39a3.37 3.37 0 004.8 2.16l4.91-2.52a3.37 3.37 0 014.54 1.5l2.52 5a3.35 3.35 0 005.13 1.1l4.29-3.5a3.36 3.36 0 014.75.51l3.48 4.33a3.36 3.36 0 005.25 0l3.48-4.33a3.35 3.35 0 014.74-.51l4.29 3.5a3.37 3.37 0 005.14-1.1l2.51-5a3.37 3.37 0 014.54-1.5l4.92 2.52a3.37 3.37 0 004.79-2.16l1.44-5.39a3.39 3.39 0 014.14-2.42l5.32 1.43a3.4 3.4 0 004.25-3.13l.3-5.58a3.4 3.4 0 013.55-3.23l5.5.27a3.41 3.41 0 003.51-4l-.84-5.52a3.43 3.43 0 012.8-3.92l5.44-.89a3.42 3.42 0 002.62-4.61l-1.95-5.21a3.43 3.43 0 011.94-4.42l5.13-2a3.45 3.45 0 001.62-5.06l-3-4.7a3.45 3.45 0 01.96-4.75zm-79.82 23.57c-20.86 0-37.77-17.15-37.77-38.3s16.91-38.29 37.77-38.29 37.77 17.14 37.77 38.29-16.91 38.3-37.77 38.3z" fill="#cbe4d9"/><path d="M179.85 108.09a3.8 3.8 0 000-5.83l-2.72-2.26a3.8 3.8 0 01-.52-5.27l2.24-2.8a3.79 3.79 0 00-1.17-5.7l-3.15-1.66a3.79 3.79 0 01-1.6-5.05l1.62-3.21a3.77 3.77 0 00-2.32-5.31l-3.42-1a3.76 3.76 0 01-2.59-4.6l.92-3.48a3.75 3.75 0 00-3.36-4.73l-3.55-.19a3.74 3.74 0 01-3.48-4l.19-3.6a3.73 3.73 0 00-4.25-3.92l-3.51.54a3.72 3.72 0 01-4.18-3.13l-.55-3.55a3.71 3.71 0 00-5-2.94l-3.32 1.26a3.69 3.69 0 01-4.77-2.17l-1.27-3.37a3.69 3.69 0 00-5.46-1.82l-3 1.94a3.68 3.68 0 01-5.11-1.13l-1.93-3a3.68 3.68 0 00-5.72-.64L106.34 30a3.68 3.68 0 01-5.23 0l-2.51-2.59a3.67 3.67 0 00-5.72.58l-1.95 3a3.68 3.68 0 01-5.12 1.07l-3-2a3.68 3.68 0 00-5.47 1.78l-1.3 3.35a3.7 3.7 0 01-4.79 2.13L68 36.08A3.7 3.7 0 0063 39l-.59 3.55a3.71 3.71 0 01-4.24 3.1l-3.51-.57a3.73 3.73 0 00-4.29 3.88l.16 3.6A3.73 3.73 0 0147 56.45l-3.55.19a3.75 3.75 0 00-3.4 4.7l.89 3.49a3.76 3.76 0 01-2.64 4.57l-3.44.93a3.78 3.78 0 00-2.36 5.32l1.59 3.22a3.78 3.78 0 01-1.64 5l-3.16 1.63a3.78 3.78 0 00-1.22 5.7l2.21 2.8a3.79 3.79 0 01-.57 5.27L27 101.58a3.8 3.8 0 000 5.83l2.75 2.28a3.8 3.8 0 01.52 5.28L28 117.76a3.79 3.79 0 001.17 5.71l3.15 1.66a3.79 3.79 0 011.6 5.05l-1.62 3.21a3.77 3.77 0 002.32 5.33l3.42 1a3.76 3.76 0 012.59 4.6l-.92 3.48a3.75 3.75 0 003.29 4.69l3.55.22a3.74 3.74 0 013.48 3.95l-.19 3.6a3.73 3.73 0 004.25 3.92l3.51-.54a3.72 3.72 0 014.22 3.13l.55 3.56a3.71 3.71 0 005 2.94l3.31-1.27a3.7 3.7 0 014.77 2.18l1.27 3.37a3.69 3.69 0 005.46 1.82l3-1.94a3.68 3.68 0 015.11 1.13l1.93 3a3.68 3.68 0 005.72.64l2.53-2.53a3.68 3.68 0 015.23 0l2.51 2.55a3.67 3.67 0 005.72-.58l2-3a3.69 3.69 0 015.12-1.08l3 2a3.68 3.68 0 005.47-1.78l1.3-3.35a3.7 3.7 0 014.79-2.13l3.31 1.29a3.71 3.71 0 005-2.89l.58-3.56a3.71 3.71 0 014.24-3.09l3.51.57a3.74 3.74 0 004.29-3.88l-.16-3.6a3.75 3.75 0 013.51-3.93l3.55-.18a3.75 3.75 0 003.4-4.7l-.89-3.49a3.76 3.76 0 012.63-4.57l3.44-.93a3.78 3.78 0 002.28-5.34l-1.59-3.22a3.78 3.78 0 011.64-5l3.16-1.63a3.78 3.78 0 001.22-5.7l-2.21-2.82a3.8 3.8 0 01.57-5.27zm-76.45 35c-20.86 0-37.77-17.15-37.77-38.3s16.91-38.25 37.77-38.25 37.77 17.14 37.77 38.29-16.91 38.3-37.77 38.3z" fill="#fff"/><path d="M162.18 112.7a2.27 2.27 0 00.35-3.48l-2.9-2.94a2.28 2.28 0 010-3.18l2.89-3a2.28 2.28 0 00-.37-3.48l-3.44-2.27a2.26 2.26 0 01-.66-3.1l2.21-3.51a2.26 2.26 0 00-1.07-3.32L155.35 83a2.28 2.28 0 01-1.28-2.91l1.45-3.89a2.26 2.26 0 00-1.74-3l-4.05-.66a2.25 2.25 0 01-1.85-2.56l.62-4.12a2.25 2.25 0 00-2.32-2.59l-4.09.21a2.23 2.23 0 01-2.34-2.12l-.24-4.15a2.22 2.22 0 00-2.79-2l-4 1.07A2.22 2.22 0 01130 54.6l-1.08-4a2.23 2.23 0 00-3.16-1.42l-3.66 1.89a2.21 2.21 0 01-3-1l-1.89-3.7a2.2 2.2 0 00-3.37-.72l-3.19 2.62a2.2 2.2 0 01-3.12-.33l-2.53-3.2a2.2 2.2 0 00-3.44 0L98.94 48a2.2 2.2 0 01-3.12.34l-3.2-2.59a2.2 2.2 0 00-3.37.73l-1.87 3.71a2.22 2.22 0 01-3 1l-3.67-1.87a2.22 2.22 0 00-3.15 1.43l-1.06 4a2.23 2.23 0 01-2.71 1.6l-4-1.06A2.24 2.24 0 0067 57.35l-.22 4.16a2.22 2.22 0 01-2.32 2.13l-4.1-.19a2.24 2.24 0 00-2.3 2.6l.64 4.11a2.25 2.25 0 01-1.84 2.58l-4 .68a2.26 2.26 0 00-1.72 3l1.47 3.88a2.26 2.26 0 01-1.27 2.91l-3.82 1.52a2.28 2.28 0 00-1.06 3.33l2.23 3.49a2.27 2.27 0 01-.64 3.11L44.62 97a2.26 2.26 0 00-.35 3.47l2.9 3a2.28 2.28 0 010 3.18l-2.89 3a2.27 2.27 0 00.37 3.47l3.44 2.27a2.27 2.27 0 01.66 3.11l-2.21 3.5a2.27 2.27 0 001.07 3.33l3.83 1.49a2.26 2.26 0 011.28 2.9l-1.44 3.9a2.25 2.25 0 001.73 3l4 .65a2.26 2.26 0 011.85 2.57l-.62 4.12a2.25 2.25 0 002.32 2.59l4.09-.22a2.24 2.24 0 012.34 2.13l.24 4.15a2.23 2.23 0 002.8 2.05l4-1.08a2.22 2.22 0 012.72 1.59l1.09 4a2.21 2.21 0 003.16 1.32l3.66-1.88a2.21 2.21 0 013 1l1.89 3.7a2.2 2.2 0 003.37.72l3.19-2.62a2.2 2.2 0 013.12.33l2.61 3.21a2.2 2.2 0 003.45 0l2.58-3.24a2.21 2.21 0 013.12-.34l3.2 2.6a2.2 2.2 0 003.37-.73l1.87-3.71a2.21 2.21 0 013-1l3.67 1.87a2.22 2.22 0 003.15-1.43l1.06-4a2.23 2.23 0 012.71-1.6l4 1.06a2.24 2.24 0 002.79-2.07l.22-4.15a2.24 2.24 0 012.32-2.14l4.1.2a2.24 2.24 0 002.3-2.61l-.64-4.11a2.25 2.25 0 011.84-2.57l4.05-.68a2.26 2.26 0 001.72-3l-1.47-3.89a2.27 2.27 0 011.27-2.91l3.82-1.51a2.27 2.27 0 001.06-3.33l-2.23-3.49a2.27 2.27 0 01.64-3.11zm-58.78 30.43c-20.86 0-37.77-17.15-37.77-38.3s16.91-38.29 37.77-38.29 37.77 17.14 37.77 38.29-16.91 38.3-37.77 38.3z" fill="#cbe4d9"/><path d="M154.78 106.49a2 2 0 000-3l-2.78-2.32a2 2 0 01-.27-2.71l2.27-2.84a2 2 0 00-.61-2.94L150.2 91a2 2 0 01-.83-2.6l1.63-3.24a2 2 0 00-1.19-2.75l-3.47-1a2 2 0 01-1.34-2.33l.93-3.53a1.93 1.93 0 00-1.74-2.43l-3.58-.21a1.94 1.94 0 01-1.8-2l.18-3.64a1.92 1.92 0 00-2.19-2l-3.56.55a1.91 1.91 0 01-2.17-1.61l-.56-3.6a1.92 1.92 0 00-2.57-1.61l-3.36 1.28a1.9 1.9 0 01-2.46-1.12l-1.29-3.4a1.89 1.89 0 00-2.81-.93l-3 2a1.9 1.9 0 01-2.64-.57l-1.98-3.06a1.89 1.89 0 00-3-.32l-2.56 2.56a1.89 1.89 0 01-2.69 0l-2.55-2.58a1.89 1.89 0 00-2.94.31l-2 3a1.9 1.9 0 01-2.64.56l-3-2a1.9 1.9 0 00-2.82.92L85 59.09a1.91 1.91 0 01-2.47 1.11l-3.36-1.31a1.91 1.91 0 00-2.57 1.5L76 64a1.92 1.92 0 01-2.19 1.6l-3.58-.6A1.92 1.92 0 0068 67l.16 3.64a1.92 1.92 0 01-1.81 2l-3.59.19A1.94 1.94 0 0061 75.3l1 3.53a1.94 1.94 0 01-1.35 2.36l-3.47.94a2 2 0 00-1.22 2.74l1.61 3.26a2 2 0 01-.84 2.6l-3.2 1.65a2 2 0 00-.62 2.94l2.24 2.85a1.94 1.94 0 01-.29 2.71l-2.86 2.3a2 2 0 000 3l2.78 2.31a2 2 0 01.27 2.72L52.8 114a2 2 0 00.61 2.95l3.19 1.67a1.94 1.94 0 01.83 2.6l-1.63 3.25a2 2 0 001.2 2.79l3.47 1a1.94 1.94 0 011.34 2.37l-.93 3.52a1.94 1.94 0 001.74 2.44l3.59.21a1.93 1.93 0 011.79 2l-.18 3.64a1.92 1.92 0 002.19 2l3.56-.55a1.91 1.91 0 012.17 1.61l.56 3.6a1.92 1.92 0 002.57 1.51l3.36-1.28a1.9 1.9 0 012.46 1.11l1.31 3.43a1.91 1.91 0 002.82.93l3-2a1.9 1.9 0 012.64.57l2 3.06a1.9 1.9 0 002.95.32l2.56-2.56a1.89 1.89 0 012.69 0l2.55 2.58a1.89 1.89 0 002.94-.31l2-3a1.9 1.9 0 012.64-.56l3 2a1.91 1.91 0 002.83-.92l1.3-3.39a1.91 1.91 0 012.47-1.11l3.36 1.31a1.91 1.91 0 002.57-1.5l.58-3.59a1.91 1.91 0 012.19-1.6l3.55.57a1.93 1.93 0 002.21-2l-.17-3.64a1.92 1.92 0 011.81-2l3.59-.2a1.93 1.93 0 001.75-2.42l-.91-3.53a1.94 1.94 0 011.35-2.36l3.47-.94a2 2 0 001.22-2.75l-1.61-3.25a1.94 1.94 0 01.84-2.6l3.2-1.65a2 2 0 00.62-2.94l-2.24-2.85a1.94 1.94 0 01.29-2.71zm-51.38 36.64c-20.86 0-37.77-17.15-37.77-38.3s16.91-38.29 37.77-38.29 37.77 17.14 37.77 38.29-16.91 38.3-37.77 38.3z" fill="#8ec8be"/><path d="M146.1 106.14a1.68 1.68 0 010-2.35l2.27-2.31a1.68 1.68 0 00-.25-2.57l-2.7-1.8a1.69 1.69 0 01-.47-2.3l1.75-2.74a1.67 1.67 0 00-.78-2.46l-3-1.19a1.69 1.69 0 01-.94-2.15l1.16-3a1.67 1.67 0 00-1.26-2.27l-3.18-.54a1.66 1.66 0 01-1.36-1.9l.51-3.23a1.66 1.66 0 00-1.7-1.92l-3.22.15a1.67 1.67 0 01-1.72-1.56l-.21-3.3a1.65 1.65 0 00-2-1.53l-3.11.83a1.65 1.65 0 01-2-1.19l-.89-3.15a1.65 1.65 0 00-2.33-1.06l-2.88 1.47a1.63 1.63 0 01-2.2-.74l-1.47-2.91a1.63 1.63 0 00-2.49-.54l-2.52 2a1.62 1.62 0 01-2.3-.26l-2-2.53a1.62 1.62 0 00-2.55 0l-2 2.52a1.63 1.63 0 01-2.31.24l-2.5-2.05a1.63 1.63 0 00-2.5.53l-1.48 2.9a1.64 1.64 0 01-2.21.72l-2.91-1.45a1.63 1.63 0 00-2.33 1l-.85 3.15a1.65 1.65 0 01-2 1.17L78 67a1.66 1.66 0 00-2 1.53l-.18 3.26a1.67 1.67 0 01-1.73 1.57l-3.22-.17a1.65 1.65 0 00-1.71 1.91l.48 3.23a1.66 1.66 0 01-1.37 1.9l-3.18.51A1.67 1.67 0 0063.78 83l1.14 3a1.68 1.68 0 01-1 2.15l-3 1.17a1.69 1.69 0 00-.8 2.46l1.74 2.75a1.67 1.67 0 01-.49 2.29l-2.7 1.78a1.69 1.69 0 00-.27 2.57l2.26 2.33a1.68 1.68 0 010 2.35l-2.27 2.31a1.68 1.68 0 00.26 2.57l2.69 1.8a1.69 1.69 0 01.47 2.3l-1.75 2.74a1.68 1.68 0 00.78 2.46l3 1.19a1.68 1.68 0 01.94 2.15l-1.16 3a1.67 1.67 0 001.27 2.24l3.18.53a1.67 1.67 0 011.36 1.91l-.43 3.31a1.66 1.66 0 001.7 1.92l3.22-.15a1.65 1.65 0 011.72 1.58l.17 3.26a1.65 1.65 0 002.06 1.53l3.12-.83a1.64 1.64 0 012 1.18l.83 3.16a1.65 1.65 0 002.33 1.06L89 145.6a1.63 1.63 0 012.2.74l1.47 2.91a1.63 1.63 0 002.49.54l2.52-2a1.63 1.63 0 012.3.25l2 2.54a1.63 1.63 0 002.55 0l2-2.53a1.64 1.64 0 012.31-.23l2.5 2.05a1.63 1.63 0 002.5-.53l1.48-2.9a1.64 1.64 0 012.21-.72l2.87 1.48a1.63 1.63 0 002.33-1l.85-3.15a1.64 1.64 0 012-1.17l3.11.84a1.65 1.65 0 002.07-1.51l.18-3.26a1.66 1.66 0 011.73-1.57l3.22.17a1.65 1.65 0 001.71-1.91l-.48-3.23a1.66 1.66 0 011.37-1.9l3.18-.51a1.67 1.67 0 001.28-2.24l-1.14-3a1.69 1.69 0 011-2.15l3-1.17a1.69 1.69 0 00.8-2.46l-1.74-2.75a1.68 1.68 0 01.49-2.3l2.7-1.78a1.68 1.68 0 00.27-2.57zm-42.7 37c-20.86 0-37.77-17.15-37.77-38.3s16.91-38.3 37.77-38.3 37.77 17.14 37.77 38.29-16.91 38.3-37.77 38.3z" fill="#059290"/><path d="M304.75 33.33c2.79 0 4.85.72 6.19 2.18a7.66 7.66 0 012 5.41 8.21 8.21 0 01-2 5.55c-1.34 1.54-3.4 2.32-6.19 2.32s-4.67-.78-6-2.32a8.39 8.39 0 01-1.93-5.55 7.83 7.83 0 011.93-5.41c1.33-1.46 3.32-2.18 6-2.18zm7.12 27.4v85.85H298.1V60.73zm23.68 0l2.17 4.92a25.35 25.35 0 018-4.5 27.38 27.38 0 019-1.54 23.28 23.28 0 017.67 1.26 17.3 17.3 0 016.34 3.86 18.11 18.11 0 014.27 6.54 24.88 24.88 0 011.55 9.13v66.18h-13.77V83.07q0-5.34-2.32-8.22T350.87 72c-3.81 0-7.48 1.5-11 4.5v70.11h-13.76V60.73zM401 126.2c0 3 .94 5.28 2.79 6.82a10.74 10.74 0 007.12 2.32 11 11 0 007.28-2.32q2.78-2.31 2.78-6.82V121l12.54-3v8.85a20.38 20.38 0 01-1.78 8.71 19.38 19.38 0 01-5 6.53 21.66 21.66 0 01-7.34 4.15 28 28 0 01-9 1.4 27.18 27.18 0 01-8.9-1.4 20.93 20.93 0 01-7.2-4.15 19.82 19.82 0 01-4.88-6.53 20.38 20.38 0 01-1.78-8.71V80.4a20.54 20.54 0 011.78-8.64 19.72 19.72 0 014.88-6.61 21.07 21.07 0 017.2-4.14 27.18 27.18 0 018.9-1.4 28 28 0 019 1.4 21.81 21.81 0 017.34 4.14 19.29 19.29 0 015 6.61 20.54 20.54 0 011.78 8.64v3.65H421v-3q0-4.5-2.78-6.81a11.05 11.05 0 00-7.29-2.24 10.79 10.79 0 00-7.12 2.32C402 75.83 401 78.1 401 81.1zm58.53-94.14v32a26 26 0 0114.86-4.49 23.22 23.22 0 017.66 1.26 17.42 17.42 0 016.35 3.86 18.22 18.22 0 014.25 6.54 24.67 24.67 0 011.55 9.13v66.18h-13.77V83.07c0-3.56-.78-6.3-2.32-8.22S474 72 470.52 72q-5.73 0-11 4.5v70.11h-13.76V35.16z" fill="#151718"/><path d="M282.84 73.62a20.94 20.94 0 00-5.21-6.72 25.27 25.27 0 00-7.63-4.51 26.6 26.6 0 00-9.42-1.66 20.28 20.28 0 00-6.69 1.37 10.21 10.21 0 00-5.1 3.32l-3.1-3.91h-9.35v111.64l13.78 3.1v-32a26 26 0 0014.85 4.51 23.16 23.16 0 007.69-1.3 16.72 16.72 0 006.31-3.84 18.12 18.12 0 004.29-6.54 25.45 25.45 0 001.51-9.12V81.82a18.27 18.27 0 00-1.93-8.2zM271 125.27c0 3.55-.77 6.28-2.33 8.2s-4.1 2.88-7.61 2.88q-5.7 0-11-4.51V82.38a3.33 3.33 0 000-.63 9.16 9.16 0 01.59-2.44 9.8 9.8 0 012.55-3.73 11.26 11.26 0 0114.44 0 10.1 10.1 0 012.66 3.81A10.46 10.46 0 01271 82z" fill="#1c1c1b"/></svg>